<svg preserveAspectRatio="none" width="375" height="667" viewBox="0 0 375 667" xmlns="http://www.w3.org/2000/svg">
    <g clip-path="url(#clip0)">
        <rect width="375" height="667" fill="url(#paint0_linear)"/>
        <mask id="mask0" mask-type="alpha" maskUnits="userSpaceOnUse" x="0" y="0" width="376" height="667">
            <rect width="376" height="667" fill="#FFDB56"/>
        </mask>
        <g mask="url(#mask0)">
            <path opacity="0.05" fill-rule="evenodd" clip-rule="evenodd" d="M129.557 -202L139 -182.964L-39.5568 261L-49 241.964L129.557 -202Z" fill="white"/>
            <path opacity="0.05" fill-rule="evenodd" clip-rule="evenodd" d="M99.5568 -215L109 -195.964L-69.5568 248L-79 228.964L99.5568 -215Z" fill="white"/>
            <path opacity="0.05" fill-rule="evenodd" clip-rule="evenodd" d="M129.557 -95L139 -75.9644L-39.5568 368L-49 348.964L129.557 -95Z" fill="white"/>
            <path opacity="0.05" fill-rule="evenodd" clip-rule="evenodd" d="M145.557 -27L155 -7.9233L-23.5568 437L-33 417.923L145.557 -27Z" fill="white"/>
            <path opacity="0.05" fill-rule="evenodd" clip-rule="evenodd" d="M476.507 442L486 461.118L306.493 907L297 887.882L476.507 442Z" fill="white"/>
            <path opacity="0.05" fill-rule="evenodd" clip-rule="evenodd" d="M494.507 512L504 531.036L324.493 975L315 955.964L494.507 512Z" fill="white"/>
            <path opacity="0.05" fill-rule="evenodd" clip-rule="evenodd" d="M522.507 566L532 585.036L352.493 1029L343 1009.96L522.507 566Z" fill="white"/>
            <path opacity="0.05" fill-rule="evenodd" clip-rule="evenodd" d="M192.568 -32L202 -12.9349L-14.5677 527L-24 507.935L192.568 -32Z" fill="white"/>
            <path opacity="0.05" fill-rule="evenodd" clip-rule="evenodd" d="M238.738 -30L248.53 -10.3205L-12.2075 636L-22 616.32L238.738 -30Z" fill="white"/>
            <path opacity="0.05" fill-rule="evenodd" clip-rule="evenodd" d="M285.844 -38L296 -17.7014L-2.84352 719L-13 698.701L285.844 -38Z" fill="white"/>
            <path opacity="0.05" fill-rule="evenodd" clip-rule="evenodd" d="M318.937 -9L331 15.2403L-23.9371 895L-36 870.76L318.937 -9Z" fill="white"/>
            <path opacity="0.05" fill-rule="evenodd" clip-rule="evenodd" d="M354.318 21L365 42.5589L50.6824 825L40 803.441L354.318 21Z" fill="white"/>
            <path opacity="0.05" fill-rule="evenodd" clip-rule="evenodd" d="M418.792 -22L430 0.577824L100.208 820L89 797.422L418.792 -22Z" fill="white"/>
            <path opacity="0.05" fill-rule="evenodd" clip-rule="evenodd" d="M474.332 -43L486 -19.43L142.668 836L131 812.43L474.332 -43Z" fill="white"/>
            <path opacity="0.05" fill-rule="evenodd" clip-rule="evenodd" d="M453.942 139L464 159.272L168.058 895L158 874.728L453.942 139Z" fill="white"/>
            <path opacity="0.05" fill-rule="evenodd" clip-rule="evenodd" d="M467.534 228L477 247.092L198.466 940L189 920.908L467.534 228Z" fill="white"/>
            <path opacity="0.05" fill-rule="evenodd" clip-rule="evenodd" d="M516.534 228L526 247.092L247.466 940L238 920.908L516.534 228Z" fill="white"/>
        </g>
        <g opacity="0.8" filter="url(#filter0_d)">
            <path d="M327.99 59.2556L330.004 61.5329L329.085 64.3158C328.984 64.6807 329.069 65.0652 329.359 65.2835C329.47 65.4203 329.649 65.5017 329.835 65.5213C329.959 65.5343 330.083 65.5473 330.213 65.4984C330.213 65.4984 330.275 65.5049 330.281 65.443L332.969 64.2858L335.358 65.9766C335.358 65.9766 335.42 65.9831 335.413 66.045C335.71 66.2014 336.081 66.2404 336.349 66.0807C336.678 65.9275 336.841 65.569 336.818 65.1911L336.498 62.2781C336.765 62.1184 337.176 61.786 337.586 61.4535L338.873 60.5247L338.941 60.4693C339.215 60.2477 339.316 59.8827 339.225 59.5601C339.133 59.2376 338.912 58.9639 338.547 58.8629L338.485 58.8564L335.608 58.241L334.711 55.4552C334.711 55.4552 334.718 55.3933 334.656 55.3868C334.639 54.9469 334.349 54.7286 334.04 54.6961C333.73 54.6636 333.401 54.8168 333.183 55.1068C333.183 55.1068 333.176 55.1687 333.115 55.1622L331.658 57.7007L328.716 57.7045L328.654 57.698C328.338 57.7273 328.002 57.9424 327.846 58.239C327.745 58.604 327.768 58.9819 327.99 59.2556V59.2556Z" fill="white"/>
        </g>
        <g opacity="0.5" filter="url(#filter1_d)">
            <path d="M298.719 364.53C299.356 364.993 299.974 364.735 300.094 363.957L300.613 360.584C300.733 359.805 300.928 359.805 301.048 360.584L301.567 363.957C301.687 364.735 302.306 364.993 302.943 364.53L305.876 362.396C306.513 361.933 306.655 362.075 306.191 362.712L304.058 365.645C303.595 366.282 303.852 366.901 304.631 367.021L308.004 367.54C308.782 367.659 308.782 367.855 308.004 367.975L304.631 368.494C303.852 368.614 303.595 369.233 304.058 369.869L306.191 372.803C306.655 373.439 306.513 373.581 305.876 373.118L302.943 370.985C302.306 370.521 301.687 370.779 301.567 371.557L301.048 374.931C300.928 375.709 300.733 375.709 300.613 374.931L300.094 371.557C299.974 370.779 299.355 370.521 298.719 370.985L295.786 373.118C295.149 373.581 295.031 373.458 295.525 372.845L297.951 369.827C298.445 369.214 298.21 368.623 297.43 368.516L293.586 367.985C292.806 367.877 292.804 367.689 293.582 367.567L297.031 367.025C297.809 366.903 298.066 366.282 297.603 365.645L295.47 362.712C295.006 362.076 295.149 361.934 295.785 362.397L298.719 364.53Z" fill="white"/>
        </g>
        <g opacity="0.6" filter="url(#filter2_d)">
            <path d="M15.6897 62.5465C16.3307 63.0043 16.9468 62.7407 17.0598 61.9615L17.5495 58.5841C17.6624 57.8048 17.8581 57.8031 17.9846 58.5803L18.5332 61.9486C18.6597 62.7258 19.2808 62.978 19.9133 62.5097L22.8281 60.3508C23.4606 59.8819 23.604 60.0229 23.1463 60.6639L21.0386 63.6155C20.5808 64.2565 20.8439 64.8726 21.6232 64.9856L25.001 65.4753C25.7803 65.5882 25.782 65.7839 25.0048 65.9104L21.636 66.459C20.8588 66.5855 20.6066 67.2066 21.0754 67.8391L23.2343 70.7539C23.7032 71.3864 23.5622 71.5298 22.9217 71.0721L19.9696 68.9644C19.3291 68.5066 18.7125 68.7697 18.5995 69.549L18.1098 72.9269C17.9969 73.7061 17.8012 73.7078 17.6747 72.9306L17.1261 69.5618C16.9996 68.7846 16.3785 68.5324 15.746 69.0012L12.8317 71.1601C12.1992 71.629 12.0803 71.5069 12.5687 70.889L14.9687 67.8504C15.4567 67.2325 15.2168 66.6443 14.4362 66.5438L10.5872 66.0463C9.80666 65.9452 9.80311 65.7573 10.5798 65.6283L14.0238 65.0567C14.8005 64.9277 15.0527 64.3043 14.5839 63.6718L12.425 60.7575C11.9561 60.125 12.0971 59.9816 12.7376 60.4393L15.6897 62.5465Z" fill="white"/>
        </g>
        <g opacity="0.8">
            <g opacity="0.7" filter="url(#filter3_d)">
                <path d="M23.3918 150.814L30.5375 152.73L32.4115 159.61C32.6968 160.487 33.3852 161.153 34.2669 161.206C34.6756 161.335 35.1486 161.26 35.5517 161.05C35.8205 160.91 36.0892 160.77 36.288 160.496C36.288 160.496 36.4224 160.426 36.3525 160.291L40.2529 154.333L47.3709 154.556C47.3709 154.556 47.5053 154.486 47.5753 154.62C48.387 154.539 49.1933 154.119 49.5209 153.436C49.9829 152.683 49.832 151.737 49.2779 151.001L44.7165 145.519C45.0441 144.837 45.4307 143.611 45.8172 142.385L47.1811 138.771L47.2455 138.567C47.5032 137.75 47.2179 136.874 46.5994 136.342C45.9809 135.81 45.1636 135.552 44.2875 135.837L44.1531 135.907L37.4879 138.523L31.927 134.074C31.927 134.074 31.857 133.94 31.7226 134.01C31.0986 133.139 30.2169 133.086 29.5451 133.435C28.8732 133.785 28.4112 134.538 28.3578 135.42C28.3578 135.42 28.4278 135.554 28.2934 135.624L28.7482 142.731L22.7824 146.691L22.6481 146.76C22.0461 147.245 21.6541 148.132 21.7351 148.944C22.0204 149.82 22.5745 150.556 23.3918 150.814V150.814Z" fill="white"/>
            </g>
            <g opacity="0.5" filter="url(#filter4_d)">
                <path d="M321.616 155.691L323.924 160.757L320.825 165.139C320.453 165.724 320.396 166.443 320.787 166.98C320.908 167.279 321.178 167.518 321.493 167.652C321.703 167.741 321.913 167.83 322.167 167.814C322.167 167.814 322.272 167.858 322.316 167.754L327.643 167.166L330.921 171.406C330.921 171.406 331.026 171.451 330.982 171.556C331.417 171.988 332.047 172.255 332.6 172.119C333.259 172.027 333.736 171.486 333.898 170.812L334.898 165.539C335.451 165.403 336.348 165.04 337.245 164.678L339.996 163.74L340.145 163.68C340.743 163.438 341.115 162.853 341.128 162.24C341.141 161.626 340.9 161.028 340.314 160.656L340.21 160.611L335.5 157.993L335.422 152.634C335.422 152.634 335.466 152.529 335.361 152.485C335.568 151.706 335.177 151.168 334.652 150.946C334.128 150.723 333.469 150.815 332.932 151.206C332.932 151.206 332.887 151.311 332.782 151.266L328.873 154.932L323.719 153.363L323.614 153.319C323.044 153.201 322.342 153.398 321.909 153.834C321.537 154.419 321.374 155.093 321.616 155.691V155.691Z" fill="white"/>
            </g>
            <g filter="url(#filter5_d)">
                <path d="M43.7011 515.622L44.6359 516.863L44.0564 518.244C43.9903 518.425 44.0181 518.625 44.1571 518.748C44.2081 518.822 44.2961 518.87 44.39 518.888C44.4525 518.899 44.5151 518.911 44.5835 518.891C44.5835 518.891 44.6147 518.897 44.6205 518.866L46.0364 518.384L47.1856 519.341C47.1856 519.341 47.2169 519.347 47.2111 519.378C47.3559 519.47 47.5436 519.505 47.6861 519.434C47.8599 519.369 47.9573 519.193 47.9608 519L47.9147 517.503C48.0572 517.432 48.2796 517.279 48.5021 517.126L49.195 516.705L49.2321 516.679C49.3804 516.577 49.4465 516.395 49.4129 516.227C49.3793 516.059 49.2774 515.911 49.0955 515.845L49.0642 515.839L47.623 515.41L47.2779 513.955C47.2779 513.955 47.2837 513.924 47.2525 513.918C47.2618 513.693 47.1228 513.57 46.9663 513.541C46.8099 513.512 46.6361 513.577 46.5133 513.716C46.5133 513.716 46.5075 513.747 46.4762 513.742L45.6326 514.977L44.1334 514.86L44.1021 514.855C43.9399 514.857 43.7603 514.953 43.6687 515.098C43.6027 515.28 43.5992 515.473 43.7011 515.622V515.622Z" fill="white"/>
            </g>
            <g filter="url(#filter6_d)">
                <circle cx="209.68" cy="26.68" r="3.68" fill="white"/>
            </g>
            <g filter="url(#filter7_d)">
                <circle cx="281.34" cy="216.34" r="2.34" fill="white"/>
            </g>
        </g>
        <g opacity="0.8">
            <g opacity="0.6" filter="url(#filter8_d)">
                <path d="M-16.559 611.113L-4.3358 619.835L-5.66394 634.248C-5.74429 636.117 -4.90909 637.873 -3.27075 638.601C-2.58544 639.137 -1.63241 639.329 -0.716858 639.217C-0.106489 639.142 0.50388 639.067 1.07678 638.687C1.07678 638.687 1.38196 638.649 1.34449 638.344L12.9952 629.789L26.3696 635.272C26.3696 635.272 26.6748 635.234 26.7123 635.539C28.3131 635.962 30.1442 635.737 31.2526 634.672C32.6661 633.569 33.0516 631.663 32.5216 629.869L27.746 616.206C28.8544 615.14 30.4606 613.084 32.0669 611.028L37.2284 605.128L37.4961 604.786C38.567 603.415 38.6473 601.546 37.8496 600.095C37.0519 598.644 35.6812 597.574 33.8127 597.493L33.5075 597.531L18.9764 597.766L11.5666 585.355C11.5666 585.355 11.5292 585.05 11.224 585.087C10.6565 582.988 9.01816 582.26 7.49223 582.448C5.96631 582.635 4.5528 583.738 3.82461 585.376C3.82461 585.376 3.86208 585.681 3.5569 585.719L-0.630315 599.554L-14.7866 602.841L-15.0918 602.878C-16.5803 603.371 -17.9563 604.779 -18.3793 606.38C-18.4597 608.248 -17.9296 610.042 -16.559 611.113V611.113Z" fill="white"/>
            </g>
            <g opacity="0.6" filter="url(#filter9_d)">
                <path d="M101.733 653.499L104.972 660.611L100.623 666.761C100.101 667.583 100.02 668.592 100.569 669.346C100.739 669.766 101.118 670.101 101.56 670.288C101.855 670.413 102.149 670.538 102.506 670.516C102.506 670.516 102.654 670.579 102.716 670.431L110.194 669.607L114.795 675.559C114.795 675.559 114.942 675.621 114.88 675.768C115.491 676.376 116.375 676.751 117.152 676.559C118.076 676.43 118.746 675.671 118.974 674.725L120.377 667.323C121.154 667.132 122.413 666.623 123.672 666.114L127.533 664.798L127.743 664.713C128.583 664.374 129.105 663.553 129.123 662.691C129.141 661.83 128.802 660.99 127.981 660.468L127.833 660.405L121.223 656.73L121.113 649.208C121.113 649.208 121.175 649.061 121.028 648.998C121.318 647.905 120.769 647.15 120.033 646.837C119.296 646.525 118.372 646.654 117.618 647.203C117.618 647.203 117.555 647.35 117.408 647.288L111.92 652.434L104.684 650.232L104.537 650.169C103.738 650.004 102.751 650.28 102.144 650.892C101.622 651.713 101.394 652.659 101.733 653.499V653.499Z" fill="white"/>
            </g>
            <g filter="url(#filter10_d)">
                <path d="M165.667 604.918L170.555 611.408L167.525 618.629C167.179 619.58 167.324 620.623 168.051 621.265C168.318 621.653 168.778 621.907 169.269 621.998C169.596 622.059 169.923 622.119 170.281 622.016C170.281 622.016 170.444 622.047 170.475 621.883L177.879 619.364L183.888 624.369C183.888 624.369 184.052 624.4 184.022 624.563C184.779 625.042 185.76 625.224 186.506 624.854C187.415 624.515 187.924 623.594 187.942 622.583L187.701 614.755C188.446 614.385 189.609 613.586 190.773 612.786L194.396 610.581L194.59 610.448C195.366 609.915 195.711 608.964 195.536 608.085C195.36 607.207 194.827 606.431 193.876 606.086L193.712 606.055L186.176 603.812L184.371 596.202C184.371 596.202 184.402 596.039 184.238 596.008C184.287 594.833 183.56 594.191 182.742 594.039C181.924 593.888 181.015 594.227 180.373 594.954C180.373 594.954 180.342 595.117 180.179 595.087L175.767 601.545L167.927 600.938L167.764 600.908C166.915 600.92 165.976 601.422 165.497 602.18C165.152 603.131 165.134 604.143 165.667 604.918V604.918Z" fill="white"/>
            </g>
            <g filter="url(#filter11_d)">
                <circle cx="164.24" cy="687.049" r="11.76" fill="white"/>
            </g>
        </g>
        <g opacity="0.2">
            <g filter="url(#filter12_d)">
                <path d="M393.641 539.407L373.113 549.313L371.395 571.216C371.035 574.032 369.334 576.445 366.696 577.113C365.533 577.738 364.058 577.781 362.717 577.378C361.823 577.109 360.929 576.84 360.17 576.124C360.17 576.124 359.723 575.989 359.858 575.542L344.628 559.749L323.211 564.513C323.211 564.513 322.764 564.378 322.629 564.825C320.126 565.047 317.444 564.239 316.06 562.361C314.229 560.347 314.142 557.397 315.396 554.85L326.052 535.637C324.668 533.758 322.794 530.27 320.919 526.781L314.715 516.628L314.402 516.046C313.153 513.721 313.513 510.905 315.079 508.939C316.645 506.973 318.971 505.724 321.787 506.084L322.234 506.218L343.912 510.306L358.187 493.644C358.187 493.644 358.321 493.197 358.768 493.331C360.157 490.338 362.795 489.669 365.029 490.342C367.264 491.014 369.095 493.028 369.763 495.666C369.763 495.666 369.629 496.113 370.076 496.247L372.783 518.02L393.116 526.577L393.563 526.711C395.663 527.831 397.359 530.291 397.581 532.794C397.221 535.61 395.967 538.157 393.641 539.407V539.407Z" fill="white"/>
            </g>
            <g filter="url(#filter13_d)">
                <path d="M123.84 51.7161L113.013 37.483L95.9044 39.5882C93.683 39.7518 91.5621 38.8215 90.6357 36.8977C89.9735 36.1014 89.7093 34.974 89.8098 33.8801C89.8769 33.1508 89.9439 32.4215 90.3755 31.7257C90.3755 31.7257 90.409 31.361 90.7737 31.3945L100.534 17.2146L93.5212 1.49347C93.5212 1.49347 93.5547 1.12882 93.1901 1.09532C92.6283 -0.794932 92.8293 -2.98281 94.0573 -4.34088C95.3188 -6.0636 97.5737 -6.59186 99.7281 -6.02617L116.167 -0.83841C117.395 -2.19648 119.784 -4.18331 122.173 -6.17016L129.008 -12.5289L129.406 -12.86C130.999 -14.1845 133.22 -14.3482 134.977 -13.4513C136.733 -12.5545 138.057 -10.9619 138.221 -8.74051L138.187 -8.37586L138.436 8.93008L153.479 17.2992C153.479 17.2992 153.844 17.3327 153.81 17.6973C156.329 18.2965 157.256 20.2202 157.088 22.0435C156.921 23.8667 155.659 25.5894 153.735 26.5158C153.735 26.5158 153.371 26.4823 153.337 26.847L137.021 32.3345L133.623 49.3054L133.589 49.67C133.057 51.4598 131.431 53.149 129.541 53.7107C127.319 53.8744 125.165 53.3087 123.84 51.7161V51.7161Z" fill="white"/>
            </g>
            <g filter="url(#filter14_d)">
                <path d="M258.254 583.312L255.744 591.399L261.26 597.415C261.934 598.226 262.159 599.3 261.672 600.186C261.547 600.66 261.185 601.072 260.736 601.334C260.436 601.509 260.136 601.683 259.75 601.708C259.75 601.708 259.6 601.796 259.512 601.646L251.363 601.782L247.231 608.808C247.231 608.808 247.081 608.896 247.168 609.045C246.594 609.782 245.695 610.306 244.834 610.206C243.823 610.193 243 609.469 242.625 608.483L240.105 600.72C239.244 600.62 237.821 600.245 236.399 599.871L232.068 598.984L231.831 598.922C230.882 598.672 230.208 597.861 230.071 596.937C229.934 596.014 230.184 595.065 230.995 594.391L231.145 594.304L237.748 589.45L236.837 581.35C236.837 581.35 236.75 581.2 236.9 581.113C236.438 579.977 236.925 579.091 237.674 578.654C238.423 578.217 239.434 578.23 240.32 578.717C240.32 578.717 240.407 578.867 240.557 578.779L247.159 583.56L254.635 580.204L254.785 580.116C255.621 579.829 256.719 579.992 257.455 580.566C258.129 581.377 258.504 582.363 258.254 583.312V583.312Z" fill="white"/>
            </g>
            <g filter="url(#filter15_d)">
                <path d="M182.893 539.838L178.526 547.482L182.77 554.829C183.272 555.804 183.258 556.944 182.565 557.734C182.331 558.187 181.871 558.524 181.356 558.689C181.013 558.799 180.669 558.909 180.271 558.847C180.271 558.847 180.099 558.902 180.044 558.73L171.742 557.035L165.967 563.236C165.967 563.236 165.795 563.291 165.85 563.463C165.102 564.081 164.072 564.411 163.22 564.116C162.197 563.875 161.524 562.955 161.366 561.87L160.555 553.424C159.703 553.128 158.344 552.428 156.984 551.728L152.788 549.853L152.561 549.737C151.655 549.27 151.153 548.295 151.222 547.326C151.29 546.358 151.757 545.452 152.732 544.95L152.904 544.895L160.698 541.454L161.597 533.028C161.597 533.028 161.542 532.856 161.713 532.801C161.5 531.545 162.194 530.755 163.052 530.48C163.911 530.205 164.934 530.446 165.724 531.139C165.724 531.139 165.779 531.311 165.95 531.256L171.575 537.594L179.919 535.869L180.09 535.814C181.004 535.711 182.082 536.123 182.7 536.872C183.201 537.847 183.359 538.932 182.893 539.838V539.838Z" fill="white"/>
            </g>
        </g>
        <g opacity="0.2">
            <g filter="url(#filter16_d)">
                <path d="M361.232 13.0536L353.732 19.9894L355.865 29.6026C356.08 30.8568 355.667 32.1137 354.624 32.7458C354.207 33.166 353.581 33.3779 352.953 33.3807C352.535 33.3825 352.117 33.3843 351.697 33.1769C351.697 33.1769 351.488 33.1779 351.487 32.9687L342.89 28.1949L334.334 33.0435C334.334 33.0435 334.125 33.0444 334.126 33.2536C333.082 33.6765 331.827 33.682 330.987 33.0581C329.939 32.4351 329.515 31.1819 329.719 29.9259L331.768 20.2944C330.929 19.6706 329.668 18.4209 328.408 17.1713L324.418 13.6326L324.208 13.4243C323.367 12.5913 323.153 11.3371 323.567 10.2894C323.98 9.24164 324.813 8.40126 326.068 8.18661L326.277 8.18569L336.104 7.09689L340.039 -1.91522C340.039 -1.91522 340.038 -2.1244 340.247 -2.12532C340.45 -3.5905 341.493 -4.2226 342.539 -4.22716C343.585 -4.23173 344.634 -3.60875 345.266 -2.56558C345.266 -2.56558 345.267 -2.3564 345.476 -2.35732L349.49 6.62011L359.326 7.62312L359.535 7.62221C360.582 7.82683 361.631 8.65898 362.054 9.70306C362.269 10.9572 362.065 12.2132 361.232 13.0536V13.0536Z" fill="white"/>
            </g>
            <g filter="url(#filter17_d)">
                <circle r="5.71084" transform="matrix(-0.992005 0.126199 0.126199 0.992005 272.152 58.1934)" fill="white"/>
            </g>
            <g filter="url(#filter18_d)">
                <circle r="2.85542" transform="matrix(-0.992005 0.126199 0.126199 0.992005 367.53 106.507)" fill="white"/>
            </g>
        </g>
        <g opacity="0.8">
            <g opacity="0.8" filter="url(#filter19_d)">
                <path d="M378.886 641.32L366.91 637.426L364.337 625.563C363.93 624.048 362.819 622.854 361.325 622.685C360.642 622.429 359.831 622.515 359.127 622.836C358.658 623.05 358.189 623.264 357.826 623.713C357.826 623.713 357.592 623.819 357.699 624.054L350.538 633.835L338.457 632.823C338.457 632.823 338.223 632.93 338.116 632.695C336.729 632.761 335.321 633.402 334.703 634.534C333.85 635.773 334.023 637.394 334.899 638.695L342.165 648.42C341.547 649.552 340.781 651.601 340.014 653.651L337.374 659.671L337.246 660.013C336.735 661.379 337.142 662.894 338.146 663.854C339.15 664.813 340.517 665.324 342.031 664.917L342.266 664.81L353.829 660.957L362.886 669.015C362.886 669.015 362.993 669.25 363.228 669.143C364.211 670.679 365.705 670.848 366.878 670.313C368.051 669.779 368.904 668.54 369.073 667.046C369.073 667.046 368.966 666.811 369.201 666.704L369.061 654.583L379.555 648.383L379.789 648.276C380.856 647.507 381.601 646.034 381.536 644.647C381.129 643.132 380.253 641.831 378.886 641.32V641.32Z" fill="white"/>
            </g>
            <g filter="url(#filter20_d)">
                <path d="M306.435 576.025L300.833 569.801L303.296 562.113C303.565 561.105 303.322 560.048 302.518 559.454C302.209 559.08 301.714 558.86 301.202 558.81C300.86 558.777 300.519 558.745 300.161 558.882C300.161 558.882 299.99 558.866 299.974 559.037L292.597 562.289L285.977 557.689C285.977 557.689 285.806 557.672 285.823 557.502C285.002 557.078 283.978 556.98 283.246 557.426C282.343 557.856 281.903 558.847 281.975 559.888L282.926 567.904C282.194 568.351 281.071 569.276 279.948 570.202L276.425 572.791L276.238 572.945C275.49 573.563 275.22 574.57 275.48 575.457C275.739 576.343 276.356 577.092 277.364 577.361L277.534 577.377L285.475 579.003L288.011 586.656C288.011 586.656 287.995 586.826 288.166 586.843C288.221 588.054 289.026 588.648 289.879 588.73C290.733 588.813 291.635 588.383 292.23 587.579C292.23 587.579 292.246 587.408 292.417 587.424L296.367 580.397L304.472 580.316L304.642 580.332C305.512 580.244 306.432 579.643 306.855 578.822C307.124 577.815 307.052 576.774 306.435 576.025V576.025Z" fill="white"/>
            </g>
            <g filter="url(#filter21_d)">
                <path d="M393.171 565.189L389.212 562.364L389.642 557.695C389.668 557.09 389.397 556.521 388.867 556.285C388.645 556.112 388.336 556.049 388.04 556.086C387.842 556.11 387.644 556.134 387.459 556.258C387.459 556.258 387.36 556.27 387.372 556.368L383.598 559.14L379.266 557.364C379.266 557.364 379.167 557.376 379.155 557.277C378.636 557.14 378.043 557.213 377.684 557.558C377.227 557.915 377.102 558.533 377.273 559.114L378.82 563.539C378.461 563.884 377.941 564.55 377.421 565.216L375.749 567.127L375.662 567.238C375.315 567.682 375.289 568.288 375.548 568.758C375.806 569.228 376.25 569.574 376.855 569.6L376.954 569.588L381.661 569.512L384.061 573.532C384.061 573.532 384.073 573.631 384.172 573.619C384.356 574.299 384.886 574.535 385.381 574.474C385.875 574.413 386.333 574.056 386.568 573.525C386.568 573.525 386.556 573.426 386.655 573.414L388.011 568.933L392.597 567.868L392.696 567.856C393.178 567.697 393.623 567.241 393.761 566.722C393.787 566.117 393.615 565.536 393.171 565.189V565.189Z" fill="white"/>
            </g>
            <g opacity="0.6" filter="url(#filter22_d)">
                <circle cx="244.001" cy="646.663" r="7.04001" transform="rotate(162.5 244.001 646.663)" fill="white"/>
            </g>
        </g>
        <g opacity="0.8">
            <g opacity="0.5" filter="url(#filter23_d)">
                <path d="M61.788 274.851L67.1163 268.39L75.0836 269.689C76.1201 269.807 77.1296 269.41 77.5985 268.527C77.9231 268.167 78.0674 267.644 78.0405 267.13C78.0225 266.788 78.0046 266.445 77.8154 266.112C77.8154 266.112 77.8064 265.941 77.6351 265.95L73.3284 259.135L76.8992 251.907C76.8992 251.907 76.8902 251.736 77.0615 251.727C77.3591 250.852 77.3053 249.825 76.7556 249.167C76.197 248.337 75.1515 248.049 74.133 248.274L66.3451 250.399C65.7955 249.741 64.7141 248.768 63.6328 247.794L60.551 244.693L60.3707 244.53C59.6498 243.881 58.6133 243.764 57.775 244.151C56.9367 244.539 56.2876 245.26 56.1702 246.296L56.1792 246.467L55.7447 254.561L48.5514 258.201C48.5514 258.201 48.3802 258.21 48.3892 258.381C47.1994 258.615 46.7305 259.498 46.7754 260.354C46.8203 261.211 47.3789 262.04 48.2621 262.509C48.2621 262.509 48.4333 262.5 48.4423 262.671L55.9766 265.539L57.2547 273.543L57.2637 273.714C57.4798 274.562 58.2097 275.382 59.0839 275.68C60.1204 275.797 61.1389 275.572 61.788 274.851V274.851Z" fill="white"/>
            </g>
            <g filter="url(#filter24_d)">
                <circle cx="-14.5496" cy="377.275" r="7.04001" transform="rotate(-116 -14.5496 377.275)" fill="white"/>
            </g>
            <g filter="url(#filter25_d)">
                <circle cx="61.1048" cy="337.189" r="2.47373" transform="rotate(-116 61.1048 337.189)" fill="white"/>
            </g>
            <g filter="url(#filter26_d)">
                <circle cx="11.3069" cy="222.308" r="2.47373" transform="rotate(-116 11.3069 222.308)" fill="white"/>
            </g>
        </g>
        <g opacity="0.8">
            <g filter="url(#filter27_d)">
                <path d="M400.506 484.022L405.834 477.561L413.801 478.861C414.838 478.978 415.847 478.582 416.316 477.698C416.641 477.338 416.785 476.815 416.758 476.301C416.74 475.959 416.722 475.616 416.533 475.283C416.533 475.283 416.524 475.112 416.353 475.121L412.046 468.306L415.617 461.078C415.617 461.078 415.608 460.907 415.779 460.898C416.077 460.024 416.023 458.996 415.473 458.338C414.915 457.509 413.869 457.22 412.851 457.445L405.063 459.57C404.513 458.912 403.432 457.939 402.351 456.965L399.269 453.864L399.089 453.702C398.368 453.052 397.331 452.935 396.493 453.322C395.654 453.71 395.005 454.431 394.888 455.467L394.897 455.638L394.463 463.732L387.269 467.372C387.269 467.372 387.098 467.381 387.107 467.552C385.917 467.786 385.448 468.669 385.493 469.526C385.538 470.382 386.097 471.211 386.98 471.68C386.98 471.68 387.151 471.671 387.16 471.842L394.694 474.71L395.972 482.714L395.981 482.885C396.198 483.733 396.927 484.553 397.802 484.851C398.838 484.968 399.857 484.743 400.506 484.022V484.022Z" fill="white"/>
            </g>
            <g filter="url(#filter28_d)">
                <path d="M354.881 421.86L359.556 420.52L362.942 423.763C363.4 424.16 364.013 424.303 364.528 424.034C364.802 423.968 365.043 423.766 365.199 423.511C365.303 423.341 365.407 423.171 365.426 422.949C365.426 422.949 365.478 422.865 365.394 422.812L365.574 418.134L369.661 415.849C369.661 415.849 369.713 415.764 369.798 415.816C370.228 415.496 370.54 414.986 370.493 414.491C370.499 413.91 370.093 413.428 369.532 413.2L365.105 411.656C365.058 411.16 364.861 410.338 364.664 409.517L364.209 407.019L364.176 406.882C364.045 406.334 363.587 405.937 363.059 405.846C362.53 405.756 361.982 405.887 361.585 406.345L361.533 406.43L358.662 410.161L354.022 409.537C354.022 409.537 353.937 409.485 353.885 409.569C353.239 409.29 352.724 409.559 352.464 409.983C352.204 410.408 352.198 410.988 352.467 411.503C352.467 411.503 352.552 411.555 352.499 411.64L355.162 415.491L353.141 419.743L353.089 419.828C352.914 420.304 352.993 420.937 353.314 421.367C353.771 421.764 354.333 421.992 354.881 421.86V421.86Z" fill="white"/>
            </g>
            <g filter="url(#filter29_d)">
                <circle cx="320.782" cy="460.163" r="4.32349" transform="rotate(-116 320.782 460.163)" fill="white"/>
            </g>
            <g filter="url(#filter30_d)">
                <circle cx="381.671" cy="559.146" r="3.52" transform="rotate(-116 381.671 559.146)" fill="white"/>
            </g>
        </g>
        <g opacity="0.3" filter="url(#filter31_d)">
            <path d="M364.712 246.049C356.937 246.908 349.985 251.087 345.746 257.446C344.93 258.682 344.089 260.279 343.6 261.54C343.411 262.012 343.257 262.415 343.24 262.433C343.223 262.458 342.974 262.39 342.673 262.287C340.399 261.497 337.576 261.72 335.301 262.879C334.117 263.48 332.804 264.587 332.014 265.659C331.191 266.767 330.556 268.277 330.324 269.659L330.229 270.268L329.963 270.208C328.831 269.976 325.887 269.933 324.205 270.122C318.086 270.809 313.151 273.709 310.448 278.206C308.585 281.313 308.517 285.312 310.259 288.788C311.503 291.285 314.147 293.723 317.253 295.225C322.883 297.962 330.015 298.039 335.971 295.431C336.031 295.405 336.271 295.765 336.546 296.297C338.399 299.85 341.746 302.305 345.986 303.223C347.248 303.498 349.822 303.498 351.041 303.232C353.538 302.674 355.744 301.532 357.58 299.85L358.035 299.438L358.473 299.644C359.014 299.893 360.558 300.4 361.356 300.58C364.515 301.318 367.956 301.146 371.037 300.116C372.479 299.636 373.509 299.138 374.942 298.228C375.113 298.117 375.174 298.151 375.886 298.752C376.864 299.584 377.422 299.996 378.315 300.554C383.232 303.592 389.454 304.467 395.35 302.948C397.967 302.27 400.551 300.992 402.773 299.275C403.769 298.503 405.52 296.726 405.992 296.006C406.206 295.679 406.438 295.362 406.515 295.302C406.61 295.225 406.953 295.199 407.734 295.216C408.42 295.225 409.098 295.182 409.57 295.096C413.801 294.349 417.337 291.157 418.47 287.08C418.89 285.561 418.899 283.424 418.487 281.819C417.5 277.983 414.342 274.945 410.248 273.881C409.236 273.624 407.27 273.521 406.335 273.675C404.936 273.915 405.193 273.993 404.207 272.988C401.804 270.543 398.551 268.809 394.372 267.753C393.642 267.573 393.033 267.41 393.024 267.393C393.007 267.376 392.913 266.904 392.818 266.337C392.423 264.055 391.763 262.064 390.681 259.909C387.403 253.413 381.404 248.624 374.195 246.745C372.144 246.213 370.651 246.041 367.844 246.007C366.497 245.989 365.09 246.007 364.712 246.049Z" fill="white"/>
        </g>
        <g opacity="0.3" filter="url(#filter32_d)">
            <path d="M21.2215 364.044C14.352 364.802 8.21042 368.494 4.4648 374.113C3.74449 375.205 3.00143 376.615 2.56925 377.73C2.40244 378.147 2.26596 378.503 2.25079 378.518C2.23563 378.541 2.01575 378.48 1.75037 378.389C-0.25892 377.692 -2.75347 377.889 -4.76276 378.912C-5.80911 379.443 -6.96919 380.421 -7.66675 381.369C-8.39464 382.347 -8.95573 383.682 -9.16045 384.902L-9.24385 385.441L-9.4789 385.388C-10.4798 385.183 -13.0805 385.145 -14.5666 385.312C-19.9727 385.918 -24.3325 388.481 -26.7209 392.454C-28.3662 395.199 -28.4269 398.732 -26.8877 401.803C-25.7883 404.009 -23.4529 406.163 -20.7082 407.49C-15.7342 409.908 -9.43341 409.977 -4.17135 407.672C-4.11827 407.649 -3.90597 407.967 -3.66334 408.438C-2.02558 411.577 0.931487 413.745 4.6771 414.556C5.79169 414.799 8.06636 414.799 9.14303 414.564C11.3495 414.071 13.2981 413.063 14.9207 411.577L15.3225 411.213L15.7092 411.395C16.1869 411.614 17.5517 412.062 18.2569 412.221C21.0471 412.873 24.0876 412.721 26.8096 411.812C28.0834 411.387 28.9933 410.947 30.2595 410.144C30.4112 410.045 30.4642 410.075 31.0936 410.606C31.9579 411.342 32.4508 411.705 33.2393 412.198C37.5839 414.882 43.0811 415.656 48.29 414.314C50.6026 413.715 52.8849 412.585 54.8487 411.069C55.7282 410.386 57.275 408.817 57.692 408.18C57.8816 407.892 58.0863 407.611 58.1545 407.558C58.2379 407.49 58.5412 407.467 59.2312 407.482C59.8378 407.49 60.4368 407.452 60.8538 407.376C64.5918 406.716 67.7157 403.896 68.7165 400.294C69.0881 398.952 69.0957 397.064 68.7317 395.646C67.8598 392.257 65.0695 389.573 61.4528 388.633C60.5581 388.405 58.8217 388.314 57.9953 388.451C56.7594 388.663 56.9869 388.731 56.1149 387.844C53.9919 385.683 51.1182 384.152 47.4257 383.219C46.7812 383.06 46.2428 382.916 46.2353 382.901C46.2201 382.885 46.1367 382.468 46.0533 381.968C45.7045 379.951 45.1207 378.192 44.1653 376.289C41.2689 370.549 35.9689 366.318 29.5999 364.658C27.7877 364.188 26.4684 364.036 23.989 364.006C22.7986 363.991 21.5551 364.006 21.2215 364.044Z" fill="white"/>
        </g>
        <g opacity="0.3" filter="url(#filter33_d)">
            <path d="M60.5802 402.024C55.0563 402.441 50.1177 404.47 47.1057 407.557C46.5265 408.157 45.929 408.931 45.5815 409.544C45.4473 409.773 45.3376 409.969 45.3254 409.977C45.3132 409.99 45.1364 409.956 44.923 409.906C43.3073 409.523 41.3013 409.631 39.6856 410.194C38.8442 410.485 37.9114 411.023 37.3504 411.544C36.7651 412.081 36.314 412.814 36.1493 413.485L36.0823 413.781L35.8933 413.752C35.0884 413.639 32.9972 413.618 31.8021 413.71C27.4549 414.043 23.9491 415.451 22.0286 417.635C20.7055 419.143 20.6567 421.084 21.8944 422.771C22.7785 423.984 24.6564 425.167 26.8635 425.896C30.8632 427.225 35.9298 427.262 40.1612 425.996C40.2039 425.983 40.3746 426.158 40.5697 426.417C41.8866 428.141 44.2645 429.333 47.2764 429.779C48.1727 429.912 50.0018 429.912 50.8676 429.783C52.6418 429.512 54.2088 428.958 55.5135 428.141L55.8367 427.942L56.1476 428.042C56.5317 428.162 57.6292 428.408 58.1962 428.496C60.44 428.854 62.8849 428.771 65.0737 428.271C66.098 428.037 66.8297 427.796 67.8479 427.354C67.9698 427.3 68.0125 427.317 68.5185 427.608C69.2136 428.012 69.6099 428.212 70.244 428.483C73.7376 429.958 78.158 430.383 82.3466 429.645C84.2062 429.316 86.0414 428.696 87.6206 427.862C88.3278 427.487 89.5716 426.625 89.907 426.275C90.0594 426.117 90.224 425.963 90.2789 425.933C90.346 425.896 90.5898 425.883 91.1447 425.892C91.6324 425.896 92.1141 425.875 92.4494 425.833C95.4553 425.471 97.9673 423.921 98.7721 421.942C99.0708 421.205 99.0769 420.168 98.7843 419.388C98.0831 417.526 95.8394 416.051 92.9311 415.535C92.2117 415.41 90.8154 415.36 90.1508 415.435C89.157 415.551 89.3399 415.589 88.6388 415.102C86.9316 413.914 84.6208 413.073 81.6516 412.56C81.1333 412.473 80.7004 412.394 80.6943 412.385C80.6821 412.377 80.6151 412.148 80.548 411.873C80.2675 410.765 79.7981 409.798 79.0298 408.752C76.7008 405.599 72.4389 403.274 67.3174 402.361C65.8602 402.103 64.7993 402.02 62.8056 402.003C61.8484 401.995 60.8485 402.003 60.5802 402.024Z" fill="white"/>
        </g>
    </g>
    <defs>
        <filter id="filter0_d" x="321.564" y="48.4666" width="23.9193" height="23.9417" filterUnits="userSpaceOnUse" color-interpolation-filters="sRGB">
            <feFlood flood-opacity="0" result="BackgroundImageFix"/>
            <feColorMatrix in="SourceAlpha" type="matrix" values="0 0 0 0 0 0 0 0 0 0 0 0 0 0 0 0 0 0 127 0"/>
            <feOffset/>
            <feGaussianBlur stdDeviation="3.11261"/>
            <feColorMatrix type="matrix" values="0 0 0 0 1 0 0 0 0 1 0 0 0 0 1 0 0 0 1 0"/>
            <feBlend mode="normal" in2="BackgroundImageFix" result="effect1_dropShadow"/>
            <feBlend mode="normal" in="SourceGraphic" in2="effect1_dropShadow" result="shape"/>
        </filter>
        <filter id="filter1_d" x="288.228" y="355.228" width="25.131" height="25.0576" filterUnits="userSpaceOnUse" color-interpolation-filters="sRGB">
            <feFlood flood-opacity="0" result="BackgroundImageFix"/>
            <feColorMatrix in="SourceAlpha" type="matrix" values="0 0 0 0 0 0 0 0 0 0 0 0 0 0 0 0 0 0 127 0"/>
            <feOffset/>
            <feGaussianBlur stdDeviation="2.38578"/>
            <feColorMatrix type="matrix" values="0 0 0 0 1 0 0 0 0 1 0 0 0 0 1 0 0 0 1 0"/>
            <feBlend mode="normal" in2="BackgroundImageFix" result="effect1_dropShadow"/>
            <feBlend mode="normal" in="SourceGraphic" in2="effect1_dropShadow" result="shape"/>
        </filter>
        <filter id="filter2_d" x="5.22844" y="53.2269" width="25.1302" height="25.057" filterUnits="userSpaceOnUse" color-interpolation-filters="sRGB">
            <feFlood flood-opacity="0" result="BackgroundImageFix"/>
            <feColorMatrix in="SourceAlpha" type="matrix" values="0 0 0 0 0 0 0 0 0 0 0 0 0 0 0 0 0 0 127 0"/>
            <feOffset/>
            <feGaussianBlur stdDeviation="2.38578"/>
            <feColorMatrix type="matrix" values="0 0 0 0 1 0 0 0 0 1 0 0 0 0 1 0 0 0 1 0"/>
            <feBlend mode="normal" in2="BackgroundImageFix" result="effect1_dropShadow"/>
            <feBlend mode="normal" in="SourceGraphic" in2="effect1_dropShadow" result="shape"/>
        </filter>
        <filter id="filter3_d" x="-0.142405" y="109.858" width="71.8105" height="71.4906" filterUnits="userSpaceOnUse" color-interpolation-filters="sRGB">
            <feFlood flood-opacity="0" result="BackgroundImageFix"/>
            <feColorMatrix in="SourceAlpha" type="matrix" values="0 0 0 0 0 0 0 0 0 0 0 0 0 0 0 0 0 0 127 0"/>
            <feOffset/>
            <feGaussianBlur stdDeviation="8.5712"/>
            <feColorMatrix type="matrix" values="0 0 0 0 1 0 0 0 0 1 0 0 0 0 1 0 0 0 1 0"/>
            <feBlend mode="normal" in2="BackgroundImageFix" result="effect1_dropShadow"/>
            <feBlend mode="normal" in="SourceGraphic" in2="effect1_dropShadow" result="shape"/>
        </filter>
        <filter id="filter4_d" x="299.678" y="129.645" width="61.7714" height="61.4714" filterUnits="userSpaceOnUse" color-interpolation-filters="sRGB">
            <feFlood flood-opacity="0" result="BackgroundImageFix"/>
            <feColorMatrix in="SourceAlpha" type="matrix" values="0 0 0 0 0 0 0 0 0 0 0 0 0 0 0 0 0 0 127 0"/>
            <feOffset/>
            <feGaussianBlur stdDeviation="8.5712"/>
            <feColorMatrix type="matrix" values="0 0 0 0 1 0 0 0 0 1 0 0 0 0 1 0 0 0 1 0"/>
            <feBlend mode="normal" in2="BackgroundImageFix" result="effect1_dropShadow"/>
            <feBlend mode="normal" in="SourceGraphic" in2="effect1_dropShadow" result="shape"/>
        </filter>
        <filter id="filter5_d" x="34.7627" y="504.763" width="23.3188" height="23.1922" filterUnits="userSpaceOnUse" color-interpolation-filters="sRGB">
            <feFlood flood-opacity="0" result="BackgroundImageFix"/>
            <feColorMatrix in="SourceAlpha" type="matrix" values="0 0 0 0 0 0 0 0 0 0 0 0 0 0 0 0 0 0 127 0"/>
            <feOffset/>
            <feGaussianBlur stdDeviation="4.11865"/>
            <feColorMatrix type="matrix" values="0 0 0 0 1 0 0 0 0 1 0 0 0 0 1 0 0 0 1 0"/>
            <feBlend mode="normal" in2="BackgroundImageFix" result="effect1_dropShadow"/>
            <feBlend mode="normal" in="SourceGraphic" in2="effect1_dropShadow" result="shape"/>
        </filter>
        <filter id="filter6_d" x="192.52" y="9.5205" width="34.319" height="34.319" filterUnits="userSpaceOnUse" color-interpolation-filters="sRGB">
            <feFlood flood-opacity="0" result="BackgroundImageFix"/>
            <feColorMatrix in="SourceAlpha" type="matrix" values="0 0 0 0 0 0 0 0 0 0 0 0 0 0 0 0 0 0 127 0"/>
            <feOffset/>
            <feGaussianBlur stdDeviation="6.73975"/>
            <feColorMatrix type="matrix" values="0 0 0 0 1 0 0 0 0 1 0 0 0 0 1 0 0 0 1 0"/>
            <feBlend mode="normal" in2="BackgroundImageFix" result="effect1_dropShadow"/>
            <feBlend mode="normal" in="SourceGraphic" in2="effect1_dropShadow" result="shape"/>
        </filter>
        <filter id="filter7_d" x="261.858" y="196.858" width="38.9648" height="38.9648" filterUnits="userSpaceOnUse" color-interpolation-filters="sRGB">
            <feFlood flood-opacity="0" result="BackgroundImageFix"/>
            <feColorMatrix in="SourceAlpha" type="matrix" values="0 0 0 0 0 0 0 0 0 0 0 0 0 0 0 0 0 0 127 0"/>
            <feOffset/>
            <feGaussianBlur stdDeviation="8.5712"/>
            <feColorMatrix type="matrix" values="0 0 0 0 1 0 0 0 0 1 0 0 0 0 1 0 0 0 1 0"/>
            <feBlend mode="normal" in2="BackgroundImageFix" result="effect1_dropShadow"/>
            <feBlend mode="normal" in="SourceGraphic" in2="effect1_dropShadow" result="shape"/>
        </filter>
        <filter id="filter8_d" x="-51.7476" y="548.253" width="124.824" height="123.495" filterUnits="userSpaceOnUse" color-interpolation-filters="sRGB">
            <feFlood flood-opacity="0" result="BackgroundImageFix"/>
            <feColorMatrix in="SourceAlpha" type="matrix" values="0 0 0 0 0 0 0 0 0 0 0 0 0 0 0 0 0 0 127 0"/>
            <feOffset/>
            <feGaussianBlur stdDeviation="15.3738"/>
            <feColorMatrix type="matrix" values="0 0 0 0 1 0 0 0 0 1 0 0 0 0 1 0 0 0 1 0"/>
            <feBlend mode="normal" in2="BackgroundImageFix" result="effect1_dropShadow"/>
            <feBlend mode="normal" in="SourceGraphic" in2="effect1_dropShadow" result="shape"/>
        </filter>
        <filter id="filter9_d" x="70.9375" y="616.936" width="86.7108" height="86.2898" filterUnits="userSpaceOnUse" color-interpolation-filters="sRGB">
            <feFlood flood-opacity="0" result="BackgroundImageFix"/>
            <feColorMatrix in="SourceAlpha" type="matrix" values="0 0 0 0 0 0 0 0 0 0 0 0 0 0 0 0 0 0 127 0"/>
            <feOffset/>
            <feGaussianBlur stdDeviation="12.0317"/>
            <feColorMatrix type="matrix" values="0 0 0 0 1 0 0 0 0 1 0 0 0 0 1 0 0 0 1 0"/>
            <feBlend mode="normal" in2="BackgroundImageFix" result="effect1_dropShadow"/>
            <feBlend mode="normal" in="SourceGraphic" in2="effect1_dropShadow" result="shape"/>
        </filter>
        <filter id="filter10_d" x="118.925" y="548.133" width="121.942" height="121.28" filterUnits="userSpaceOnUse" color-interpolation-filters="sRGB">
            <feFlood flood-opacity="0" result="BackgroundImageFix"/>
            <feColorMatrix in="SourceAlpha" type="matrix" values="0 0 0 0 0 0 0 0 0 0 0 0 0 0 0 0 0 0 127 0"/>
            <feOffset/>
            <feGaussianBlur stdDeviation="21.5378"/>
            <feColorMatrix type="matrix" values="0 0 0 0 1 0 0 0 0 1 0 0 0 0 1 0 0 0 1 0"/>
            <feBlend mode="normal" in2="BackgroundImageFix" result="effect1_dropShadow"/>
            <feBlend mode="normal" in="SourceGraphic" in2="effect1_dropShadow" result="shape"/>
        </filter>
        <filter id="filter11_d" x="109.405" y="632.213" width="109.671" height="109.671" filterUnits="userSpaceOnUse" color-interpolation-filters="sRGB">
            <feFlood flood-opacity="0" result="BackgroundImageFix"/>
            <feColorMatrix in="SourceAlpha" type="matrix" values="0 0 0 0 0 0 0 0 0 0 0 0 0 0 0 0 0 0 127 0"/>
            <feOffset/>
            <feGaussianBlur stdDeviation="21.5378"/>
            <feColorMatrix type="matrix" values="0 0 0 0 1 0 0 0 0 1 0 0 0 0 1 0 0 0 1 0"/>
            <feBlend mode="normal" in2="BackgroundImageFix" result="effect1_dropShadow"/>
            <feBlend mode="normal" in="SourceGraphic" in2="effect1_dropShadow" result="shape"/>
        </filter>
        <filter id="filter12_d" x="252.977" y="431.295" width="200.449" height="198.897" filterUnits="userSpaceOnUse" color-interpolation-filters="sRGB">
            <feFlood flood-opacity="0" result="BackgroundImageFix"/>
            <feColorMatrix in="SourceAlpha" type="matrix" values="0 0 0 0 0 0 0 0 0 0 0 0 0 0 0 0 0 0 127 0"/>
            <feOffset/>
            <feGaussianBlur stdDeviation="23.3359"/>
            <feColorMatrix type="matrix" values="0 0 0 0 1 0 0 0 0 1 0 0 0 0 1 0 0 0 1 0"/>
            <feBlend mode="normal" in2="BackgroundImageFix" result="effect1_dropShadow"/>
            <feBlend mode="normal" in="SourceGraphic" in2="effect1_dropShadow" result="shape"/>
        </filter>
        <filter id="filter13_d" x="51.5614" y="-54.1667" width="145.228" height="146.872" filterUnits="userSpaceOnUse" color-interpolation-filters="sRGB">
            <feFlood flood-opacity="0" result="BackgroundImageFix"/>
            <feColorMatrix in="SourceAlpha" type="matrix" values="0 0 0 0 0 0 0 0 0 0 0 0 0 0 0 0 0 0 127 0"/>
            <feOffset/>
            <feGaussianBlur stdDeviation="18.3092"/>
            <feColorMatrix type="matrix" values="0 0 0 0 1 0 0 0 0 1 0 0 0 0 1 0 0 0 1 0"/>
            <feBlend mode="normal" in2="BackgroundImageFix" result="effect1_dropShadow"/>
            <feBlend mode="normal" in="SourceGraphic" in2="effect1_dropShadow" result="shape"/>
        </filter>
        <filter id="filter14_d" x="197.822" y="544.427" width="95.6645" height="95.3544" filterUnits="userSpaceOnUse" color-interpolation-filters="sRGB">
            <feFlood flood-opacity="0" result="BackgroundImageFix"/>
            <feColorMatrix in="SourceAlpha" type="matrix" values="0 0 0 0 0 0 0 0 0 0 0 0 0 0 0 0 0 0 127 0"/>
            <feOffset/>
            <feGaussianBlur stdDeviation="13.0362"/>
            <feColorMatrix type="matrix" values="0 0 0 0 1 0 0 0 0 1 0 0 0 0 1 0 0 0 1 0"/>
            <feBlend mode="normal" in2="BackgroundImageFix" result="effect1_dropShadow"/>
            <feBlend mode="normal" in="SourceGraphic" in2="effect1_dropShadow" result="shape"/>
        </filter>
        <filter id="filter15_d" x="100.586" y="478.678" width="135.079" height="134.499" filterUnits="userSpaceOnUse" color-interpolation-filters="sRGB">
            <feFlood flood-opacity="0" result="BackgroundImageFix"/>
            <feColorMatrix in="SourceAlpha" type="matrix" values="0 0 0 0 0 0 0 0 0 0 0 0 0 0 0 0 0 0 127 0"/>
            <feOffset/>
            <feGaussianBlur stdDeviation="23.3359"/>
            <feColorMatrix type="matrix" values="0 0 0 0 1 0 0 0 0 1 0 0 0 0 1 0 0 0 1 0"/>
            <feBlend mode="normal" in2="BackgroundImageFix" result="effect1_dropShadow"/>
            <feBlend mode="normal" in="SourceGraphic" in2="effect1_dropShadow" result="shape"/>
        </filter>
        <filter id="filter16_d" x="302.377" y="-25.2306" width="80.7751" height="79.7407" filterUnits="userSpaceOnUse" color-interpolation-filters="sRGB">
            <feFlood flood-opacity="0" result="BackgroundImageFix"/>
            <feColorMatrix in="SourceAlpha" type="matrix" values="0 0 0 0 0 0 0 0 0 0 0 0 0 0 0 0 0 0 127 0"/>
            <feOffset/>
            <feGaussianBlur stdDeviation="10.4591"/>
            <feColorMatrix type="matrix" values="0 0 0 0 1 0 0 0 0 1 0 0 0 0 1 0 0 0 1 0"/>
            <feBlend mode="normal" in2="BackgroundImageFix" result="effect1_dropShadow"/>
            <feBlend mode="normal" in="SourceGraphic" in2="effect1_dropShadow" result="shape"/>
        </filter>
        <filter id="filter17_d" x="244.848" y="30.8892" width="54.6083" height="54.6083" filterUnits="userSpaceOnUse" color-interpolation-filters="sRGB">
            <feFlood flood-opacity="0" result="BackgroundImageFix"/>
            <feColorMatrix in="SourceAlpha" type="matrix" values="0 0 0 0 0 0 0 0 0 0 0 0 0 0 0 0 0 0 127 0"/>
            <feOffset/>
            <feGaussianBlur stdDeviation="10.4591"/>
            <feColorMatrix type="matrix" values="0 0 0 0 1 0 0 0 0 1 0 0 0 0 1 0 0 0 1 0"/>
            <feBlend mode="normal" in2="BackgroundImageFix" result="effect1_dropShadow"/>
            <feBlend mode="normal" in="SourceGraphic" in2="effect1_dropShadow" result="shape"/>
        </filter>
        <filter id="filter18_d" x="343.419" y="82.3957" width="48.2224" height="48.2224" filterUnits="userSpaceOnUse" color-interpolation-filters="sRGB">
            <feFlood flood-opacity="0" result="BackgroundImageFix"/>
            <feColorMatrix in="SourceAlpha" type="matrix" values="0 0 0 0 0 0 0 0 0 0 0 0 0 0 0 0 0 0 127 0"/>
            <feOffset/>
            <feGaussianBlur stdDeviation="10.4591"/>
            <feColorMatrix type="matrix" values="0 0 0 0 1 0 0 0 0 1 0 0 0 0 1 0 0 0 1 0"/>
            <feBlend mode="normal" in2="BackgroundImageFix" result="effect1_dropShadow"/>
            <feBlend mode="normal" in="SourceGraphic" in2="effect1_dropShadow" result="shape"/>
        </filter>
        <filter id="filter19_d" x="308.359" y="596.748" width="98.9681" height="99.6272" filterUnits="userSpaceOnUse" color-interpolation-filters="sRGB">
            <feFlood flood-opacity="0" result="BackgroundImageFix"/>
            <feColorMatrix in="SourceAlpha" type="matrix" values="0 0 0 0 0 0 0 0 0 0 0 0 0 0 0 0 0 0 127 0"/>
            <feOffset/>
            <feGaussianBlur stdDeviation="12.8934"/>
            <feColorMatrix type="matrix" values="0 0 0 0 1 0 0 0 0 1 0 0 0 0 1 0 0 0 1 0"/>
            <feBlend mode="normal" in2="BackgroundImageFix" result="effect1_dropShadow"/>
            <feBlend mode="normal" in="SourceGraphic" in2="effect1_dropShadow" result="shape"/>
        </filter>
        <filter id="filter20_d" x="249.597" y="531.347" width="83.1939" height="83.1798" filterUnits="userSpaceOnUse" color-interpolation-filters="sRGB">
            <feFlood flood-opacity="0" result="BackgroundImageFix"/>
            <feColorMatrix in="SourceAlpha" type="matrix" values="0 0 0 0 0 0 0 0 0 0 0 0 0 0 0 0 0 0 127 0"/>
            <feOffset/>
            <feGaussianBlur stdDeviation="12.8934"/>
            <feColorMatrix type="matrix" values="0 0 0 0 1 0 0 0 0 1 0 0 0 0 1 0 0 0 1 0"/>
            <feBlend mode="normal" in2="BackgroundImageFix" result="effect1_dropShadow"/>
            <feBlend mode="normal" in="SourceGraphic" in2="effect1_dropShadow" result="shape"/>
        </filter>
        <filter id="filter21_d" x="349.588" y="530.289" width="69.962" height="69.9809" filterUnits="userSpaceOnUse" color-interpolation-filters="sRGB">
            <feFlood flood-opacity="0" result="BackgroundImageFix"/>
            <feColorMatrix in="SourceAlpha" type="matrix" values="0 0 0 0 0 0 0 0 0 0 0 0 0 0 0 0 0 0 127 0"/>
            <feOffset/>
            <feGaussianBlur stdDeviation="12.8934"/>
            <feColorMatrix type="matrix" values="0 0 0 0 1 0 0 0 0 1 0 0 0 0 1 0 0 0 1 0"/>
            <feBlend mode="normal" in2="BackgroundImageFix" result="effect1_dropShadow"/>
            <feBlend mode="normal" in="SourceGraphic" in2="effect1_dropShadow" result="shape"/>
        </filter>
        <filter id="filter22_d" x="211.172" y="613.835" width="65.6575" height="65.6575" filterUnits="userSpaceOnUse" color-interpolation-filters="sRGB">
            <feFlood flood-opacity="0" result="BackgroundImageFix"/>
            <feColorMatrix in="SourceAlpha" type="matrix" values="0 0 0 0 0 0 0 0 0 0 0 0 0 0 0 0 0 0 127 0"/>
            <feOffset/>
            <feGaussianBlur stdDeviation="12.8934"/>
            <feColorMatrix type="matrix" values="0 0 0 0 1 0 0 0 0 1 0 0 0 0 1 0 0 0 1 0"/>
            <feBlend mode="normal" in2="BackgroundImageFix" result="effect1_dropShadow"/>
            <feBlend mode="normal" in="SourceGraphic" in2="effect1_dropShadow" result="shape"/>
        </filter>
        <filter id="filter23_d" x="20.9856" y="218.143" width="82.8449" height="83.3529" filterUnits="userSpaceOnUse" color-interpolation-filters="sRGB">
            <feFlood flood-opacity="0" result="BackgroundImageFix"/>
            <feColorMatrix in="SourceAlpha" type="matrix" values="0 0 0 0 0 0 0 0 0 0 0 0 0 0 0 0 0 0 127 0"/>
            <feOffset/>
            <feGaussianBlur stdDeviation="12.8934"/>
            <feColorMatrix type="matrix" values="0 0 0 0 1 0 0 0 0 1 0 0 0 0 1 0 0 0 1 0"/>
            <feBlend mode="normal" in2="BackgroundImageFix" result="effect1_dropShadow"/>
            <feBlend mode="normal" in="SourceGraphic" in2="effect1_dropShadow" result="shape"/>
        </filter>
        <filter id="filter24_d" x="-47.3777" y="344.446" width="65.6569" height="65.6569" filterUnits="userSpaceOnUse" color-interpolation-filters="sRGB">
            <feFlood flood-opacity="0" result="BackgroundImageFix"/>
            <feColorMatrix in="SourceAlpha" type="matrix" values="0 0 0 0 0 0 0 0 0 0 0 0 0 0 0 0 0 0 127 0"/>
            <feOffset/>
            <feGaussianBlur stdDeviation="12.8934"/>
            <feColorMatrix type="matrix" values="0 0 0 0 1 0 0 0 0 1 0 0 0 0 1 0 0 0 1 0"/>
            <feBlend mode="normal" in2="BackgroundImageFix" result="effect1_dropShadow"/>
            <feBlend mode="normal" in="SourceGraphic" in2="effect1_dropShadow" result="shape"/>
        </filter>
        <filter id="filter25_d" x="32.844" y="308.927" width="56.5223" height="56.5223" filterUnits="userSpaceOnUse" color-interpolation-filters="sRGB">
            <feFlood flood-opacity="0" result="BackgroundImageFix"/>
            <feColorMatrix in="SourceAlpha" type="matrix" values="0 0 0 0 0 0 0 0 0 0 0 0 0 0 0 0 0 0 127 0"/>
            <feOffset/>
            <feGaussianBlur stdDeviation="12.8934"/>
            <feColorMatrix type="matrix" values="0 0 0 0 1 0 0 0 0 1 0 0 0 0 1 0 0 0 1 0"/>
            <feBlend mode="normal" in2="BackgroundImageFix" result="effect1_dropShadow"/>
            <feBlend mode="normal" in="SourceGraphic" in2="effect1_dropShadow" result="shape"/>
        </filter>
        <filter id="filter26_d" x="-16.9539" y="194.047" width="56.5223" height="56.5223" filterUnits="userSpaceOnUse" color-interpolation-filters="sRGB">
            <feFlood flood-opacity="0" result="BackgroundImageFix"/>
            <feColorMatrix in="SourceAlpha" type="matrix" values="0 0 0 0 0 0 0 0 0 0 0 0 0 0 0 0 0 0 127 0"/>
            <feOffset/>
            <feGaussianBlur stdDeviation="12.8934"/>
            <feColorMatrix type="matrix" values="0 0 0 0 1 0 0 0 0 1 0 0 0 0 1 0 0 0 1 0"/>
            <feBlend mode="normal" in2="BackgroundImageFix" result="effect1_dropShadow"/>
            <feBlend mode="normal" in="SourceGraphic" in2="effect1_dropShadow" result="shape"/>
        </filter>
        <filter id="filter27_d" x="359.703" y="427.314" width="82.8449" height="83.3529" filterUnits="userSpaceOnUse" color-interpolation-filters="sRGB">
            <feFlood flood-opacity="0" result="BackgroundImageFix"/>
            <feColorMatrix in="SourceAlpha" type="matrix" values="0 0 0 0 0 0 0 0 0 0 0 0 0 0 0 0 0 0 127 0"/>
            <feOffset/>
            <feGaussianBlur stdDeviation="12.8934"/>
            <feColorMatrix type="matrix" values="0 0 0 0 1 0 0 0 0 1 0 0 0 0 1 0 0 0 1 0"/>
            <feBlend mode="normal" in2="BackgroundImageFix" result="effect1_dropShadow"/>
            <feBlend mode="normal" in="SourceGraphic" in2="effect1_dropShadow" result="shape"/>
        </filter>
        <filter id="filter28_d" x="326.48" y="380.033" width="69.8047" height="69.926" filterUnits="userSpaceOnUse" color-interpolation-filters="sRGB">
            <feFlood flood-opacity="0" result="BackgroundImageFix"/>
            <feColorMatrix in="SourceAlpha" type="matrix" values="0 0 0 0 0 0 0 0 0 0 0 0 0 0 0 0 0 0 127 0"/>
            <feOffset/>
            <feGaussianBlur stdDeviation="12.8934"/>
            <feColorMatrix type="matrix" values="0 0 0 0 1 0 0 0 0 1 0 0 0 0 1 0 0 0 1 0"/>
            <feBlend mode="normal" in2="BackgroundImageFix" result="effect1_dropShadow"/>
            <feBlend mode="normal" in="SourceGraphic" in2="effect1_dropShadow" result="shape"/>
        </filter>
        <filter id="filter29_d" x="300.62" y="440.002" width="40.322" height="40.322" filterUnits="userSpaceOnUse" color-interpolation-filters="sRGB">
            <feFlood flood-opacity="0" result="BackgroundImageFix"/>
            <feColorMatrix in="SourceAlpha" type="matrix" values="0 0 0 0 0 0 0 0 0 0 0 0 0 0 0 0 0 0 127 0"/>
            <feOffset/>
            <feGaussianBlur stdDeviation="7.91827"/>
            <feColorMatrix type="matrix" values="0 0 0 0 1 0 0 0 0 1 0 0 0 0 1 0 0 0 1 0"/>
            <feBlend mode="normal" in2="BackgroundImageFix" result="effect1_dropShadow"/>
            <feBlend mode="normal" in="SourceGraphic" in2="effect1_dropShadow" result="shape"/>
        </filter>
        <filter id="filter30_d" x="352.364" y="529.839" width="58.6153" height="58.6153" filterUnits="userSpaceOnUse" color-interpolation-filters="sRGB">
            <feFlood flood-opacity="0" result="BackgroundImageFix"/>
            <feColorMatrix in="SourceAlpha" type="matrix" values="0 0 0 0 0 0 0 0 0 0 0 0 0 0 0 0 0 0 127 0"/>
            <feOffset/>
            <feGaussianBlur stdDeviation="12.8934"/>
            <feColorMatrix type="matrix" values="0 0 0 0 1 0 0 0 0 1 0 0 0 0 1 0 0 0 1 0"/>
            <feBlend mode="normal" in2="BackgroundImageFix" result="effect1_dropShadow"/>
            <feBlend mode="normal" in="SourceGraphic" in2="effect1_dropShadow" result="shape"/>
        </filter>
        <filter id="filter31_d" x="290.096" y="227.096" width="147.599" height="95.487" filterUnits="userSpaceOnUse" color-interpolation-filters="sRGB">
            <feFlood flood-opacity="0" result="BackgroundImageFix"/>
            <feColorMatrix in="SourceAlpha" type="matrix" values="0 0 0 0 0 0 0 0 0 0 0 0 0 0 0 0 0 0 127 0"/>
            <feOffset/>
            <feGaussianBlur stdDeviation="9.45207"/>
            <feColorMatrix type="matrix" values="0 0 0 0 1 0 0 0 0 1 0 0 0 0 1 0 0 0 1 0"/>
            <feBlend mode="normal" in2="BackgroundImageFix" result="effect1_dropShadow"/>
            <feBlend mode="normal" in="SourceGraphic" in2="effect1_dropShadow" result="shape"/>
        </filter>
        <filter id="filter32_d" x="-44.7018" y="347.298" width="130.404" height="84.3627" filterUnits="userSpaceOnUse" color-interpolation-filters="sRGB">
            <feFlood flood-opacity="0" result="BackgroundImageFix"/>
            <feColorMatrix in="SourceAlpha" type="matrix" values="0 0 0 0 0 0 0 0 0 0 0 0 0 0 0 0 0 0 127 0"/>
            <feOffset/>
            <feGaussianBlur stdDeviation="8.3509"/>
            <feColorMatrix type="matrix" values="0 0 0 0 1 0 0 0 0 1 0 0 0 0 1 0 0 0 1 0"/>
            <feBlend mode="normal" in2="BackgroundImageFix" result="effect1_dropShadow"/>
            <feBlend mode="normal" in="SourceGraphic" in2="effect1_dropShadow" result="shape"/>
        </filter>
        <filter id="filter33_d" x="11.823" y="392.823" width="96.354" height="46.354" filterUnits="userSpaceOnUse" color-interpolation-filters="sRGB">
            <feFlood flood-opacity="0" result="BackgroundImageFix"/>
            <feColorMatrix in="SourceAlpha" type="matrix" values="0 0 0 0 0 0 0 0 0 0 0 0 0 0 0 0 0 0 127 0"/>
            <feOffset/>
            <feGaussianBlur stdDeviation="4.5885"/>
            <feColorMatrix type="matrix" values="0 0 0 0 1 0 0 0 0 1 0 0 0 0 1 0 0 0 1 0"/>
            <feBlend mode="normal" in2="BackgroundImageFix" result="effect1_dropShadow"/>
            <feBlend mode="normal" in="SourceGraphic" in2="effect1_dropShadow" result="shape"/>
        </filter>
        <linearGradient id="paint0_linear" x1="298" y1="667" x2="147.635" y2="-22.4918" gradientUnits="userSpaceOnUse">
            <stop stop-color="#ADEBCD"/>
            <stop offset="0.520833" stop-color="#97DAFF"/>
            <stop offset="1" stop-color="#D0B3FF"/>
        </linearGradient>
        <clipPath id="clip0">
            <rect width="375" height="667" fill="white"/>
        </clipPath>
    </defs>
</svg>
