<svg width="320" height="113" viewBox="0 0 320 113" fill="none" xmlns="http://www.w3.org/2000/svg">
    <g filter="url(#filter0_ddi)">
        <rect x="17.9192" y="16.8486" width="297.657" height="79.2323" rx="21.4141" fill="url(#paint0_linear)"/>
        <rect x="18.4545" y="17.384" width="296.586" height="78.1616" rx="20.8788" stroke="white" stroke-opacity="0.11" stroke-width="1.07071"/>
    </g>
    <g filter="url(#filter1_ii)">
        <path d="M105.499 66.0751C105.499 68.5035 104.824 69.7626 101.676 69.7626C99.203 69.7626 97.809 68.9532 97.809 67.5141C97.809 66.0751 99.0681 65.3106 101.496 65.3106C102.891 65.3106 104.285 65.5805 105.499 66.0751ZM111.84 40.5773C111.84 37.6093 111.165 36.8448 108.512 36.8448C106.038 36.8448 105.049 37.8341 105.049 40.4424C105.094 41.8814 105.094 43.3654 105.139 44.8045C103.835 44.8494 102.621 44.8944 101.272 44.8944C100.417 44.8944 96.28 44.7145 95.8303 44.7145C93.8067 44.7145 92.8623 45.7488 92.8623 47.9074C92.8623 51.1002 94.5711 51.6848 99.6077 51.6848C101.541 51.6848 103.43 51.5949 105.274 51.5049C105.319 54.338 105.454 57.0362 105.499 59.7794C104.33 59.5995 103.25 59.5095 102.171 59.5095C95.3806 59.5095 91.3333 62.6125 91.3333 67.8289C91.3333 72.6407 95.3356 75.6087 101.991 75.6087C107.657 75.6087 111.075 73.4951 111.929 69.5378C112.874 70.1224 114.043 71.1567 114.718 71.6514C115.302 72.0561 115.887 72.2809 116.606 72.2809C118.54 72.2809 120.024 70.5721 120.024 68.4585C120.024 67.1994 119.484 66.21 118.045 65.1757C116.112 63.7367 113.548 62.2077 112.154 61.7131C111.974 58.5202 111.795 54.4729 111.84 51.1452C117.955 50.6505 119.709 50.4257 119.709 47.2328C119.709 45.0293 118.675 43.7252 116.921 43.7252C116.336 43.7252 112.649 44.2648 111.84 44.3997V40.5773ZM89.4446 39.498C89.4446 37.6992 88.0056 36.575 85.6671 36.575C82.3394 36.575 82.1145 38.2838 81.5299 43.0506C80.7654 49.0766 80.4057 54.9226 80.4057 60.9036C80.4057 65.0858 80.6305 69.223 80.9903 71.8762C81.35 74.3495 82.4743 75.3838 84.8127 75.3838C87.1062 75.3838 88.5452 74.2596 88.5452 72.4158C88.5452 72.0111 88.5452 71.6963 88.2754 69.9875C87.9156 67.1094 87.6908 63.5118 87.6908 59.6444C87.6908 54.383 88.0505 48.7618 88.7251 44.6246C89.1748 41.7015 89.4446 39.7678 89.4446 39.498ZM133.74 36.8898C131.131 36.8898 129.872 37.9691 129.872 40.0826C129.872 40.8021 130.007 44.2198 130.007 44.9843C130.007 47.7275 129.378 61.6231 129.378 62.1628C129.378 66.4349 129.737 68.6834 130.817 70.707C132.75 74.3945 136.528 76.2383 142.014 76.2383C148.939 76.2383 154.156 73.675 157.978 68.4135C160.047 65.5805 161.891 61.3533 161.891 59.5095C161.891 57.5309 160.137 56.1368 157.709 56.1368C155.955 56.1368 155.145 56.8114 154.381 59.0149C151.818 66.1651 148.04 69.3579 142.149 69.3579C136.663 69.3579 136.663 65.2657 136.663 61.6681C136.663 58.88 137.562 45.1192 137.562 41.9714C137.562 38.2389 136.573 36.8898 133.74 36.8898ZM145.567 45.0293C145.567 45.524 145.792 45.9737 146.331 46.6932C147.366 48.1772 147.77 48.7618 148.715 50.2008C149.164 50.9203 149.794 51.2801 150.513 51.2801C151.952 51.2801 153.122 50.2908 153.122 49.0316C153.122 48.2671 152.672 47.3228 151.593 45.7938C149.839 43.2755 149.254 42.7808 148.175 42.7808C146.826 42.7808 145.567 43.8601 145.567 45.0293ZM151.053 41.8364C151.053 42.3311 151.233 42.8258 151.818 43.5453C152.492 44.3997 153.167 45.2991 154.291 46.963C154.786 47.6375 155.415 47.9973 156.045 47.9973C157.484 47.9973 158.698 46.963 158.698 45.6589C158.698 44.9394 158.203 43.995 157.079 42.466C155.325 40.0826 154.651 39.543 153.616 39.543C152.312 39.543 151.053 40.6672 151.053 41.8364ZM182.577 51.37C184.331 50.3357 186.174 49.7061 188.423 49.3464C187.793 52.4043 186.534 56.1818 185.275 58.7001C184.016 56.1818 183.161 53.8434 182.577 51.37ZM181.003 64.9958C179.339 66.6597 178.17 67.3343 177.091 67.3343C175.696 67.3343 175.067 65.6704 175.067 63.332C175.067 60.9486 175.876 58.4303 177.27 56.3617C178.215 59.3746 179.654 62.6574 181.003 64.9958ZM181.273 44.9843C181.048 43.5453 180.778 41.7915 180.643 40.6672C180.463 39.2732 179.429 38.5537 177.72 38.5537C175.202 38.5537 173.673 39.8128 173.673 41.9264C173.673 43.2755 174.302 46.6482 175.112 49.2115C171.02 53.2588 168.861 58.2054 168.861 63.5568C168.861 70.4372 171.919 74.7992 176.731 74.7992C179.384 74.7992 182.217 73.4052 184.825 70.752C185.59 71.8762 186.354 72.3259 187.389 72.3259C189.502 72.3259 191.481 70.4821 191.481 68.5485C191.481 67.6041 191.166 67.1094 189.412 64.9509C192.29 60.0941 194.224 54.4729 195.393 49.6612C200.79 50.8304 202.498 55.2824 202.498 59.1048C202.498 63.7367 199.755 67.8289 195.258 69.8975C193.325 70.7969 192.2 71.2916 192.2 73.3152C192.2 75.3838 193.819 77.0927 195.843 77.0927C197.642 77.0927 199.935 76.0584 202.363 74.1697C207.31 70.3472 209.649 65.4006 209.649 58.9699C209.649 52.6292 207.085 47.7724 202.453 45.2541C200.79 44.3548 198.136 43.4104 196.697 43.1855C196.742 42.7808 196.832 42.3311 196.922 41.7015C197.102 40.6672 197.237 39.6329 197.237 38.8235C197.237 36.8898 195.798 35.7206 193.37 35.7206C190.222 35.7206 190.042 37.4294 189.682 40.8021C189.637 41.2518 189.547 41.9714 189.412 42.8708C186.894 43.0506 183.656 43.9051 181.273 44.9843ZM235.956 70.1224C235.011 70.2573 234.112 70.3023 233.303 70.3023C230.335 70.3023 228.761 69.6727 228.761 68.4585C228.761 67.3343 229.66 66.7497 231.324 66.7497C233.438 66.7497 235.551 68.2786 235.956 70.1224ZM241.352 68.5485C240.048 64.2763 236.136 61.4882 231.414 61.4882C226.242 61.4882 222.42 64.5461 222.42 68.7283C222.42 73.4052 226.827 76.1933 234.157 76.1933C245.579 76.1933 252.999 70.5721 252.999 61.9829C252.999 54.8777 248.098 50.4257 240.318 50.4257C238.204 50.4257 236.316 50.7404 233.483 51.6398C234.607 50.9203 235.191 50.5156 235.731 50.1109C238.564 47.8624 241.442 45.6139 244.455 43.5453C245.624 42.7358 246.119 41.8814 246.119 40.5773C246.119 38.5986 244.68 37.1146 242.791 37.1146C242.117 37.1146 241.262 37.1596 240.273 37.2945C234.742 38.014 229.615 38.104 223.319 38.1939C220.666 38.2389 219.632 39.1832 219.632 41.5217C219.632 43.8151 220.801 45.0293 223.005 45.0293C225.073 45.0293 231.279 44.5346 234.517 44.1299C233.887 44.5346 233.617 44.7145 232.808 45.479C231.729 46.4234 223.949 52.9889 218.238 57.306C215.135 59.6894 214.64 60.0941 214.64 61.803C214.64 63.8266 216.214 65.4905 218.148 65.4905C219.047 65.4905 219.632 65.2207 220.441 64.4562C225.118 60.1841 229.435 56.2268 237.935 56.2268C242.746 56.2268 245.669 58.4303 245.669 62.0728C245.669 64.9059 244.185 67.1544 241.352 68.5485Z" fill="white"/>
    </g>
    <circle opacity="0.5" cx="36.1211" cy="30.7678" r="13.9192" fill="#C6E1FF"/>
    <g filter="url(#filter2_d)">
        <path d="M304.795 97.6932L315.576 96.6163L304.795 95.538L311.656 87.1521L303.27 94.014L302.192 83.2324L301.114 94.014L292.728 87.1521L299.589 95.538L288.808 96.6163L299.589 97.6932L292.728 106.08L301.114 99.219L302.192 110L303.27 99.219L311.656 106.08L304.795 97.6932Z" fill="white"/>
    </g>
    <g filter="url(#filter3_d)">
        <path d="M25.7417 23.6667L40.404 22.202L25.7417 20.7355L35.0733 9.33077L23.6679 18.6629L22.202 4L20.7355 18.6629L9.33077 9.33077L18.6623 20.7355L4 22.202L18.6623 23.6667L9.33077 35.0727L20.7355 25.7417L22.202 40.404L23.6679 25.7417L35.0733 35.0727L25.7417 23.6667Z" fill="white"/>
    </g>
    <defs>
        <filter id="filter0_ddi" x="13.6364" y="16.8486" width="306.222" height="91.0101" filterUnits="userSpaceOnUse" color-interpolation-filters="sRGB">
            <feFlood flood-opacity="0" result="BackgroundImageFix"/>
            <feColorMatrix in="SourceAlpha" type="matrix" values="0 0 0 0 0 0 0 0 0 0 0 0 0 0 0 0 0 0 127 0"/>
            <feOffset dy="7.49495"/>
            <feGaussianBlur stdDeviation="2.14141"/>
            <feColorMatrix type="matrix" values="0 0 0 0 0 0 0 0 0 0 0 0 0 0 0 0 0 0 0.1 0"/>
            <feBlend mode="normal" in2="BackgroundImageFix" result="effect1_dropShadow"/>
            <feColorMatrix in="SourceAlpha" type="matrix" values="0 0 0 0 0 0 0 0 0 0 0 0 0 0 0 0 0 0 127 0"/>
            <feOffset dy="7.49495"/>
            <feColorMatrix type="matrix" values="0 0 0 0 0.435521 0 0 0 0 0.670076 0 0 0 0 0.941667 0 0 0 1 0"/>
            <feBlend mode="normal" in2="effect1_dropShadow" result="effect2_dropShadow"/>
            <feBlend mode="normal" in="SourceGraphic" in2="effect2_dropShadow" result="shape"/>
            <feColorMatrix in="SourceAlpha" type="matrix" values="0 0 0 0 0 0 0 0 0 0 0 0 0 0 0 0 0 0 127 0" result="hardAlpha"/>
            <feOffset dy="3.21212"/>
            <feGaussianBlur stdDeviation="1.60606"/>
            <feComposite in2="hardAlpha" operator="arithmetic" k2="-1" k3="1"/>
            <feColorMatrix type="matrix" values="0 0 0 0 1 0 0 0 0 1 0 0 0 0 1 0 0 0 0.45 0"/>
            <feBlend mode="normal" in2="shape" result="effect3_innerShadow"/>
        </filter>
        <filter id="filter1_ii" x="80.4058" y="34.65" width="172.594" height="43.5135" filterUnits="userSpaceOnUse" color-interpolation-filters="sRGB">
            <feFlood flood-opacity="0" result="BackgroundImageFix"/>
            <feBlend mode="normal" in="SourceGraphic" in2="BackgroundImageFix" result="shape"/>
            <feColorMatrix in="SourceAlpha" type="matrix" values="0 0 0 0 0 0 0 0 0 0 0 0 0 0 0 0 0 0 127 0" result="hardAlpha"/>
            <feOffset dy="-1.2154"/>
            <feGaussianBlur stdDeviation="0.535354"/>
            <feComposite in2="hardAlpha" operator="arithmetic" k2="-1" k3="1"/>
            <feColorMatrix type="matrix" values="0 0 0 0 1 0 0 0 0 1 0 0 0 0 1 0 0 0 0.25 0"/>
            <feBlend mode="normal" in2="shape" result="effect1_innerShadow"/>
            <feColorMatrix in="SourceAlpha" type="matrix" values="0 0 0 0 0 0 0 0 0 0 0 0 0 0 0 0 0 0 127 0" result="hardAlpha"/>
            <feOffset dy="1.2154"/>
            <feGaussianBlur stdDeviation="0.535354"/>
            <feComposite in2="hardAlpha" operator="arithmetic" k2="-1" k3="1"/>
            <feColorMatrix type="matrix" values="0 0 0 0 0.537255 0 0 0 0 0.833412 0 0 0 0 1 0 0 0 1 0"/>
            <feBlend mode="normal" in2="effect1_innerShadow" result="effect2_innerShadow"/>
        </filter>
        <filter id="filter2_d" x="286.446" y="80.8706" width="31.4914" height="31.4914" filterUnits="userSpaceOnUse" color-interpolation-filters="sRGB">
            <feFlood flood-opacity="0" result="BackgroundImageFix"/>
            <feColorMatrix in="SourceAlpha" type="matrix" values="0 0 0 0 0 0 0 0 0 0 0 0 0 0 0 0 0 0 127 0"/>
            <feOffset/>
            <feGaussianBlur stdDeviation="1.18093"/>
            <feColorMatrix type="matrix" values="0 0 0 0 1 0 0 0 0 1 0 0 0 0 1 0 0 0 1 0"/>
            <feBlend mode="normal" in2="BackgroundImageFix" result="effect1_dropShadow"/>
            <feBlend mode="normal" in="SourceGraphic" in2="effect1_dropShadow" result="shape"/>
        </filter>
        <filter id="filter3_d" x="0.787879" y="0.787879" width="42.8283" height="42.8283" filterUnits="userSpaceOnUse" color-interpolation-filters="sRGB">
            <feFlood flood-opacity="0" result="BackgroundImageFix"/>
            <feColorMatrix in="SourceAlpha" type="matrix" values="0 0 0 0 0 0 0 0 0 0 0 0 0 0 0 0 0 0 127 0"/>
            <feOffset/>
            <feGaussianBlur stdDeviation="1.60606"/>
            <feColorMatrix type="matrix" values="0 0 0 0 1 0 0 0 0 1 0 0 0 0 1 0 0 0 1 0"/>
            <feBlend mode="normal" in2="BackgroundImageFix" result="effect1_dropShadow"/>
            <feBlend mode="normal" in="SourceGraphic" in2="effect1_dropShadow" result="shape"/>
        </filter>
        <linearGradient id="paint0_linear" x1="166.747" y1="16.8486" x2="166.747" y2="96.081" gradientUnits="userSpaceOnUse">
            <stop stop-color="#A3CFFF"/>
            <stop offset="1" stop-color="#80BBFF"/>
        </linearGradient>
    </defs>
</svg>
