<svg width="320" height="140" viewBox="0 0 375 162" fill="none" xmlns="http://www.w3.org/2000/svg">
<g filter="url(#filter0_dd)">
<path d="M-4 -5H383V102.932C383 102.932 324.176 144 190.532 144C56.888 144 -4 102.932 -4 102.932V-5Z" fill="url(#paint0_linear)"/>
<path d="M-1.5 -2.5H380.5V101.582C380.092 101.841 379.567 102.167 378.924 102.553C377.105 103.646 374.338 105.221 370.591 107.118C363.098 110.913 351.687 115.997 336.106 121.09C304.948 131.274 257.093 141.5 190.532 141.5C123.971 141.5 75.596 131.274 43.9148 121.086C28.0725 115.991 16.3991 110.905 8.7089 107.107C4.86368 105.208 2.01396 103.631 0.136566 102.537C-0.53185 102.147 -1.07702 101.818 -1.5 101.558V-2.5Z" stroke="white" stroke-opacity="0.3" stroke-width="5"/>
</g>
<mask id="mask0" mask-type="alpha" maskUnits="userSpaceOnUse" x="-4" y="-5" width="387" height="145">
<path d="M-4 -5H383V100.034C383 100.034 324.176 140 190.532 140C56.888 140 -4 100.034 -4 100.034V-5Z" fill="url(#paint1_linear)"/>
<path d="M-1.5 -2.5H380.5V98.6637C380.096 98.9129 379.58 99.2249 378.95 99.5932C377.13 100.657 374.363 102.19 370.615 104.036C363.121 107.729 351.708 112.678 336.125 117.635C304.962 127.547 257.1 137.5 190.532 137.5C123.964 137.5 75.5823 127.547 43.8961 117.631C28.0514 112.673 16.3762 107.722 8.68482 104.026C4.83899 102.177 1.9888 100.643 0.111079 99.5771C-0.543947 99.2055 -1.08065 98.8909 -1.5 98.64V-2.5Z" stroke="white" stroke-opacity="0.3" stroke-width="5"/>
</mask>
<g mask="url(#mask0)">
<g opacity="0.03">
<rect x="35.2441" y="-61.1211" width="2.07646" height="233.234" transform="rotate(26 35.2441 -61.1211)" fill="white"/>
<rect x="81.6377" y="-38.4939" width="2.07646" height="233.234" transform="rotate(26 81.6377 -38.4939)" fill="white"/>
<rect x="58.2617" y="-49.8955" width="2.07646" height="233.234" transform="rotate(26 58.2617 -49.8955)" fill="white"/>
<rect x="104.655" y="-27.2673" width="2.07646" height="233.234" transform="rotate(26 104.655 -27.2673)" fill="white"/>
<rect x="143.307" y="-8.41577" width="2.07646" height="233.234" transform="rotate(26 143.307 -8.41577)" fill="white"/>
<rect x="50.3311" y="-53.7625" width="2.07646" height="233.234" transform="rotate(26 50.3311 -53.7625)" fill="white"/>
<rect x="96.7256" y="-31.1353" width="2.07646" height="233.234" transform="rotate(26 96.7256 -31.1353)" fill="white"/>
<rect x="135.377" y="-12.2834" width="2.07646" height="233.234" transform="rotate(26 135.377 -12.2834)" fill="white"/>
<rect x="73.3486" y="-42.5359" width="2.07646" height="233.234" transform="rotate(26 73.3486 -42.5359)" fill="white"/>
<rect x="119.743" y="-19.9087" width="2.07646" height="233.234" transform="rotate(26 119.743 -19.9087)" fill="white"/>
<rect x="158.395" y="-1.05713" width="2.07646" height="233.234" transform="rotate(26 158.395 -1.05713)" fill="white"/>
<rect x="42.5898" y="-57.5388" width="2.07646" height="233.234" transform="rotate(26 42.5898 -57.5388)" fill="white"/>
<rect x="88.9834" y="-34.9106" width="2.07646" height="233.234" transform="rotate(26 88.9834 -34.9106)" fill="white"/>
<rect x="127.635" y="-16.0601" width="2.07646" height="233.234" transform="rotate(26 127.635 -16.0601)" fill="white"/>
<rect x="65.6074" y="-46.3125" width="2.07646" height="233.234" transform="rotate(26 65.6074 -46.3125)" fill="white"/>
<rect x="112.001" y="-23.6853" width="2.07646" height="233.234" transform="rotate(26 112.001 -23.6853)" fill="white"/>
<rect x="150.652" y="-4.83276" width="2.07646" height="233.234" transform="rotate(26 150.652 -4.83276)" fill="white"/>
</g>
<g opacity="0.03">
<rect x="198.243" y="-61.1211" width="2.07646" height="233.234" transform="rotate(26 198.243 -61.1211)" fill="white"/>
<rect x="244.637" y="-38.4939" width="2.07646" height="233.234" transform="rotate(26 244.637 -38.4939)" fill="white"/>
<rect x="221.261" y="-49.8955" width="2.07646" height="233.234" transform="rotate(26 221.261 -49.8955)" fill="white"/>
<rect x="267.654" y="-27.2673" width="2.07646" height="233.234" transform="rotate(26 267.654 -27.2673)" fill="white"/>
<rect x="306.306" y="-8.41577" width="2.07646" height="233.234" transform="rotate(26 306.306 -8.41577)" fill="white"/>
<rect x="213.33" y="-53.7625" width="2.07646" height="233.234" transform="rotate(26 213.33 -53.7625)" fill="white"/>
<rect x="259.725" y="-31.1353" width="2.07646" height="233.234" transform="rotate(26 259.725 -31.1353)" fill="white"/>
<rect x="298.376" y="-12.2834" width="2.07646" height="233.234" transform="rotate(26 298.376 -12.2834)" fill="white"/>
<rect x="236.348" y="-42.5359" width="2.07646" height="233.234" transform="rotate(26 236.348 -42.5359)" fill="white"/>
<rect x="282.742" y="-19.9087" width="2.07646" height="233.234" transform="rotate(26 282.742 -19.9087)" fill="white"/>
<rect x="321.394" y="-1.05713" width="2.07646" height="233.234" transform="rotate(26 321.394 -1.05713)" fill="white"/>
<rect x="205.589" y="-57.5388" width="2.07646" height="233.234" transform="rotate(26 205.589 -57.5388)" fill="white"/>
<rect x="251.982" y="-34.9106" width="2.07646" height="233.234" transform="rotate(26 251.982 -34.9106)" fill="white"/>
<rect x="290.634" y="-16.0601" width="2.07646" height="233.234" transform="rotate(26 290.634 -16.0601)" fill="white"/>
<rect x="228.606" y="-46.3125" width="2.07646" height="233.234" transform="rotate(26 228.606 -46.3125)" fill="white"/>
<rect x="275" y="-23.6853" width="2.07646" height="233.234" transform="rotate(26 275 -23.6853)" fill="white"/>
<rect x="313.651" y="-4.83276" width="2.07646" height="233.234" transform="rotate(26 313.651 -4.83276)" fill="white"/>
</g>
<g opacity="0.03">
<rect x="361.244" y="-61.1211" width="2.07646" height="233.234" transform="rotate(26 361.244 -61.1211)" fill="white"/>
<rect x="407.638" y="-38.4939" width="2.07646" height="233.234" transform="rotate(26 407.638 -38.4939)" fill="white"/>
<rect x="384.262" y="-49.8955" width="2.07646" height="233.234" transform="rotate(26 384.262 -49.8955)" fill="white"/>
<rect x="430.655" y="-27.2673" width="2.07646" height="233.234" transform="rotate(26 430.655 -27.2673)" fill="white"/>
<rect x="469.307" y="-8.41577" width="2.07646" height="233.234" transform="rotate(26 469.307 -8.41577)" fill="white"/>
<rect x="376.331" y="-53.7625" width="2.07646" height="233.234" transform="rotate(26 376.331 -53.7625)" fill="white"/>
<rect x="422.726" y="-31.1353" width="2.07646" height="233.234" transform="rotate(26 422.726 -31.1353)" fill="white"/>
<rect x="461.377" y="-12.2834" width="2.07646" height="233.234" transform="rotate(26 461.377 -12.2834)" fill="white"/>
<rect x="399.349" y="-42.5359" width="2.07646" height="233.234" transform="rotate(26 399.349 -42.5359)" fill="white"/>
<rect x="445.743" y="-19.9087" width="2.07646" height="233.234" transform="rotate(26 445.743 -19.9087)" fill="white"/>
<rect x="368.59" y="-57.5388" width="2.07646" height="233.234" transform="rotate(26 368.59 -57.5388)" fill="white"/>
<rect x="414.983" y="-34.9106" width="2.07646" height="233.234" transform="rotate(26 414.983 -34.9106)" fill="white"/>
<rect x="453.635" y="-16.0601" width="2.07646" height="233.234" transform="rotate(26 453.635 -16.0601)" fill="white"/>
<rect x="391.607" y="-46.3125" width="2.07646" height="233.234" transform="rotate(26 391.607 -46.3125)" fill="white"/>
<rect x="438.001" y="-23.6853" width="2.07646" height="233.234" transform="rotate(26 438.001 -23.6853)" fill="white"/>
<rect x="476.652" y="-4.83276" width="2.07646" height="233.234" transform="rotate(26 476.652 -4.83276)" fill="white"/>
</g>
</g>
<defs>
<filter id="filter0_dd" x="-12" y="-5" width="403" height="167" filterUnits="userSpaceOnUse" color-interpolation-filters="sRGB">
<feFlood flood-opacity="0" result="BackgroundImageFix"/>
<feColorMatrix in="SourceAlpha" type="matrix" values="0 0 0 0 0 0 0 0 0 0 0 0 0 0 0 0 0 0 127 0"/>
<feOffset dy="10"/>
<feGaussianBlur stdDeviation="4"/>
<feColorMatrix type="matrix" values="0 0 0 0 0 0 0 0 0 0 0 0 0 0 0 0 0 0 0.07 0"/>
<feBlend mode="normal" in2="BackgroundImageFix" result="effect1_dropShadow"/>
<feColorMatrix in="SourceAlpha" type="matrix" values="0 0 0 0 0 0 0 0 0 0 0 0 0 0 0 0 0 0 127 0"/>
<feOffset dy="5"/>
<feColorMatrix type="matrix" values="0 0 0 0 0.5875 0 0 0 0 0.668648 0 0 0 0 1 0 0 0 1 0"/>
<feBlend mode="normal" in2="effect1_dropShadow" result="effect2_dropShadow"/>
<feBlend mode="normal" in="SourceGraphic" in2="effect2_dropShadow" result="shape"/>
</filter>
<linearGradient id="paint0_linear" x1="383" y1="144.993" x2="-9.14875" y2="9.95148" gradientUnits="userSpaceOnUse">
<stop stop-color="#88B0FF"/>
<stop offset="1" stop-color="#97AEFF"/>
</linearGradient>
<linearGradient id="paint1_linear" x1="383" y1="140.967" x2="-6.83711" y2="3.01753" gradientUnits="userSpaceOnUse">
<stop stop-color="#88B0FF"/>
<stop offset="1" stop-color="#97AEFF"/>
</linearGradient>
</defs>
</svg>
