<svg width="68" height="16" viewBox="0 0 68 16" fill="none" xmlns="http://www.w3.org/2000/svg">
<rect opacity="0.4" x="43.5" y="2.83325" width="21" height="10.3333" rx="2.16667" stroke="white"/>
<path opacity="0.5" d="M66 6V10C66.8079 9.66122 67.3333 8.87313 67.3333 8C67.3333 7.12687 66.8079 6.33878 66 6Z" fill="white"/>
<rect x="45" y="4.33325" width="18" height="7.33333" rx="1.33333" fill="white"/>
<path fill-rule="evenodd" clip-rule="evenodd" d="M30.3338 4.57382C32.5585 4.57391 34.6982 5.4116 36.3105 6.91376C36.4319 7.02973 36.626 7.02826 36.7456 6.91048L37.9062 5.76264C37.9668 5.7029 38.0005 5.62198 38 5.53778C37.9995 5.45358 37.9648 5.37305 37.9035 5.314C33.6716 1.33967 26.9953 1.33967 22.7633 5.314C22.702 5.373 22.6673 5.45351 22.6667 5.53771C22.6661 5.62191 22.6998 5.70286 22.7603 5.76264L23.9213 6.91048C24.0408 7.02844 24.235 7.02991 24.3563 6.91376C25.9689 5.41151 28.1088 4.57381 30.3338 4.57382ZM30.3322 8.29937C31.5559 8.29929 32.736 8.7559 33.643 9.58046C33.7657 9.69748 33.959 9.69494 34.0786 9.57474L35.2392 8.39758C35.3003 8.33583 35.3342 8.25207 35.3333 8.16503C35.3325 8.07799 35.2969 7.99494 35.2345 7.93445C32.4722 5.35507 28.1945 5.35507 25.4322 7.93445C25.3698 7.99494 25.3342 8.07803 25.3334 8.1651C25.3325 8.25217 25.3666 8.33592 25.4278 8.39758L26.5881 9.57474C26.7077 9.69494 26.9009 9.69748 27.0236 9.58046C27.9301 8.75644 29.1092 8.29988 30.3322 8.29937ZM32.6666 11.023C32.6684 11.1084 32.6341 11.1908 32.5718 11.2507L30.557 13.2418C30.498 13.3003 30.4175 13.3333 30.3334 13.3333C30.2494 13.3333 30.1689 13.3003 30.1098 13.2418L28.0947 11.2507C28.0325 11.1908 27.9982 11.1083 28.0001 11.0229C28.0019 10.9374 28.0397 10.8565 28.1045 10.7992C29.3912 9.73348 31.2757 9.73348 32.5624 10.7992C32.6271 10.8566 32.6648 10.9375 32.6666 11.023Z" fill="white"/>
<path fill-rule="evenodd" clip-rule="evenodd" d="M17.6667 3.66675C17.6667 3.11446 17.219 2.66675 16.6667 2.66675H15.6667C15.1144 2.66675 14.6667 3.11446 14.6667 3.66675V12.3334C14.6667 12.8857 15.1144 13.3334 15.6667 13.3334H16.6667C17.219 13.3334 17.6667 12.8857 17.6667 12.3334V3.66675ZM11 5.00008H12C12.5523 5.00008 13 5.4478 13 6.00008V12.3334C13 12.8857 12.5523 13.3334 12 13.3334H11C10.4477 13.3334 10 12.8857 10 12.3334V6.00008C10 5.4478 10.4477 5.00008 11 5.00008ZM7.33335 7.33341H6.33335C5.78107 7.33341 5.33335 7.78113 5.33335 8.33341V12.3334C5.33335 12.8857 5.78107 13.3334 6.33335 13.3334H7.33335C7.88564 13.3334 8.33335 12.8857 8.33335 12.3334V8.33341C8.33335 7.78113 7.88564 7.33341 7.33335 7.33341ZM3.66669 10.3334C3.66669 9.78113 3.21897 9.33341 2.66669 9.33341H1.66669C1.1144 9.33341 0.666687 9.78113 0.666687 10.3334V12.3334C0.666687 12.8857 1.1144 13.3334 1.66669 13.3334H2.66669C3.21897 13.3334 3.66669 12.8857 3.66669 12.3334V10.3334Z" fill="white"/>
</svg>
