<svg width="179" height="388" viewBox="0 0 179 388" fill="none" xmlns="http://www.w3.org/2000/svg">
    <path d="M128.503 370.915C128.503 370.915 129.875 382.208 130.545 383.579C131.214 384.951 135.872 387.28 137.243 387.28C147.132 387.28 158.457 381.219 163.593 381.219C168.728 381.219 179 375.062 179 375.062C179 375.062 177.533 369.416 175.842 369.416C174.151 369.416 161.551 368.555 158.808 368.204C156.064 367.853 143.4 364.439 143.4 364.439L128.503 370.915Z" fill="#5D556E"/>
    <path d="M126.557 357.453L130.066 372.127C130.066 372.127 138.041 374.456 141.486 372.063C144.899 369.671 145.601 365.556 145.601 365.556L142.858 354.263L126.557 357.453Z" fill="#FAB7A6" stroke="#FAB7A6" stroke-width="0.664577"/>
    <path d="M5.24231 344.853C5.24231 344.853 2.49893 345.874 0.457354 351.01C-1.58423 356.146 3.71112 366.864 6.4545 371.33C9.19787 375.796 16.3434 384.568 18.7359 384.919C21.1284 385.27 28.4653 385.206 28.4653 382.814C28.4653 380.421 25.5624 373.276 23.8717 370.532C22.1492 367.789 19.2144 350.595 19.2144 350.595L5.24231 344.853Z" fill="#5D556E"/>
    <path d="M6.99666 339.781L4.95508 345.937C4.95508 345.937 5.81637 351.297 9.22964 353.019C12.6429 354.742 17.7788 353.019 17.7788 353.019L22.8827 345.65L6.99666 339.781Z" fill="#FAB7A6" stroke="#FAB7A6" stroke-width="0.664577"/>
    <path d="M118.518 169.404C118.518 169.404 122.952 182.005 127.514 191.256C129.651 195.562 132.937 200.506 133.926 200.538C132.937 203.377 135.297 210.81 136.669 213.203C138.041 215.595 143.336 218.849 147.451 217.828C151.566 216.807 160.466 216.456 161.838 214.734C163.21 213.011 161.168 198.975 157.723 196.583C154.31 194.19 150.864 192.468 150.864 192.468L146.973 177.507L137.849 156.868L118.518 169.404Z" fill="#FAB7A6" stroke="#FAB7A6" stroke-width="0.664577"/>
    <path d="M138.2 208.928C138.2 208.928 137.53 202.42 140.242 201.399C142.985 200.379 147.1 197.635 149.812 198.656C152.523 199.677 157.691 206.184 157.691 206.184" stroke="#FAB7A6" stroke-width="0.970261" stroke-linecap="round" stroke-linejoin="round"/>
    <path d="M29.4222 199.071L23.9992 219.487C23.9992 219.487 25.658 273.525 24.6372 281.053C23.6164 288.582 7.41139 325.394 5.81641 337.835C5.81641 337.835 7.44329 342.46 12.5791 345.204C17.715 347.947 28.4652 346.767 28.4652 346.767C28.4652 346.767 57.462 314.899 61.6409 309.444C65.0542 304.978 69.6796 295.185 69.6796 286.955C69.6796 278.725 78.0054 230.077 76.9528 229.057C75.9001 228.036 78.7072 224.814 81.0997 226.186C83.4922 227.557 105.28 278.214 109.395 284.403C113.51 290.591 113.159 295.025 113.159 295.025C113.159 295.025 116.636 356.528 120.719 358.219C124.834 359.941 127.227 361.632 130.991 360.962C134.755 360.292 144.899 354.104 144.899 354.104C144.899 354.104 157.276 319.173 159.254 309.444C161.902 296.493 158.648 276.555 157.978 272.44C157.308 268.325 123.75 197.125 120.655 192.691C117.561 188.257 111.085 179.931 111.085 179.931L36.8867 188.448L29.4222 199.071Z" fill="#5D556F"/>
    <path d="M113.446 159.515C113.191 158.303 113 157.601 113 157.601C113 157.601 113.159 158.335 113.446 159.515Z" fill="#FDF25F"/>
    <path d="M147.132 177.698C151.917 167.171 141.071 134.314 141.071 134.314C141.071 134.314 126.238 84.3914 113 73.0671C107.289 68.1864 88.2134 65.2197 88.2134 65.2197L60.4926 66.9423C60.4926 66.9423 40.4915 70.3237 31.9743 75.9699C19.0549 84.5509 10.2506 110.422 5.81651 124.457C1.38245 138.493 1.66955 152.88 1.66955 157.314C1.66955 161.748 12.2602 193.074 16.0244 197.508C19.7886 201.942 33.2503 193.999 33.2503 193.999C33.2503 193.999 36.4083 191.447 36.7592 188.576C50.1571 194.956 106.269 185.928 110.767 184.748C110.767 184.812 110.767 184.844 110.767 184.907C110.862 184.844 110.958 184.812 111.086 184.748C117.657 181.59 114.69 165.193 113.446 159.547C113.159 158.335 113 157.633 113 157.633C113 157.633 113.191 158.367 113.446 159.547C114.307 163.216 116.094 171.478 116.827 177.73C117.784 186.024 124.771 189.916 124.771 189.916C125.951 189.724 126.716 189.533 126.716 189.533C126.716 189.533 144.995 182.387 147.132 177.698Z" fill="#FAFAFA"/>
    <path d="M102.76 14.0526C102.76 14.0526 107.736 25.1856 107.736 33.0648C107.736 36.2229 111.564 41.4863 111.245 47.1007C110.958 52.4917 108.565 59.3502 108.055 59.8606C107.034 60.8813 101.356 65.9215 98.8041 65.2835C95.5822 64.486 93.7002 64.0075 92.1052 66.5595C91.4672 73.8964 88.2772 76.1294 88.2772 76.1294C88.2772 76.1294 82.7267 82.7007 73.5076 82.0308C64.2567 81.361 59.8865 71.3125 59.8865 67.1975C59.8865 67.1975 61.2901 63.848 61.8005 62.4125C62.5979 60.1796 65.9793 53.9591 65.9793 53.9591C65.9793 53.9591 59.8227 44.7082 60.4926 39.5723C61.1625 34.4365 61.1625 21.1024 65.6284 16.6365C70.0625 12.2024 75.1983 9.77802 82.4077 9.10812C89.5851 8.43823 98.4851 10.4798 99.8568 10.8307C101.228 11.1816 102.76 14.0526 102.76 14.0526Z" fill="#FAB7A6" stroke="#FAB7A6" stroke-width="0.664577"/>
    <path d="M102.537 13.6063C101.548 14.2124 99.9845 15.0099 98.1662 15.2332C95.072 15.584 86.172 14.5633 83.4605 15.2332C80.7171 15.903 76.5382 18.774 75.9321 19.6672C74.5605 21.7088 72.9336 26.2704 72.168 28.5672C71.3067 31.1511 71.1791 36.5741 72.168 37.8181L71.4981 38.169C71.4981 38.169 68.7547 32.6823 64.6397 35.4257C60.5246 38.169 63.9698 43.9748 65.6604 46.0483C67.0321 47.7071 68.7547 47.7709 68.7547 47.7709L66.0113 53.9275C66.0113 53.9275 60.8755 50.1633 59.1529 46.3992C57.4303 42.635 55.0378 39.5407 55.0378 32.0124C55.0378 24.4841 56.3138 18.8697 58.802 13.5425C61.1945 8.40661 67.3511 2.21807 76.602 1.22918C86.172 0.208389 93.8917 2.76037 96.7946 5.66324C100.91 9.7783 102.792 14.0529 102.792 14.0529" fill="#5D556E"/>
    <path d="M102.537 13.6063C101.548 14.2124 99.9845 15.0099 98.1662 15.2332C95.072 15.584 86.172 14.5633 83.4605 15.2332C80.7171 15.903 76.5382 18.774 75.9321 19.6672C74.5605 21.7088 72.9336 26.2704 72.168 28.5672C71.3067 31.1511 71.1791 36.5741 72.168 37.8181L71.4981 38.169C71.4981 38.169 68.7547 32.6823 64.6397 35.4257C60.5246 38.169 63.9698 43.9748 65.6604 46.0483C67.0321 47.7071 68.7547 47.7709 68.7547 47.7709L66.0113 53.9275C66.0113 53.9275 60.8755 50.1633 59.1529 46.3992C57.4303 42.635 55.0378 39.5407 55.0378 32.0124C55.0378 24.4841 56.3138 18.8697 58.802 13.5425C61.1945 8.40661 67.3511 2.21807 76.602 1.22918C86.172 0.208389 93.8917 2.76037 96.7946 5.66324C100.91 9.7783 102.792 14.0529 102.792 14.0529" stroke="#393B4A" stroke-width="0.664577" stroke-linecap="round" stroke-linejoin="round"/>
    <path d="M88.2136 35.7763C89.7287 35.7763 90.957 34.548 90.957 33.0329C90.957 31.5178 89.7287 30.2896 88.2136 30.2896C86.6985 30.2896 85.4702 31.5178 85.4702 33.0329C85.4702 34.548 86.6985 35.7763 88.2136 35.7763Z" fill="#5D556E" stroke="#393B4A" stroke-width="0.664577" stroke-linecap="round" stroke-linejoin="round"/>
    <path d="M103.461 33.3841C104.783 33.3841 105.854 32.3129 105.854 30.9916C105.854 29.6703 104.783 28.5991 103.461 28.5991C102.14 28.5991 101.069 29.6703 101.069 30.9916C101.069 32.3129 102.14 33.3841 103.461 33.3841Z" fill="#5D556E" stroke="#393B4A" stroke-width="0.664577" stroke-linecap="round" stroke-linejoin="round"/>
    <path d="M45.5318 122.671C45.5318 122.671 35.0049 145.639 35.0049 150.105C39.4708 155.847 36.9189 188.704 36.9189 188.704" stroke="#4CB2CB" stroke-width="0.970261" stroke-linecap="round" stroke-linejoin="round"/>
    <path d="M108.374 114.059C108.374 114.059 104.769 127.775 109.969 134.155C121.134 147.872 116.126 160.536 114.754 166.693" stroke="#4CB2CB" stroke-width="0.970261" stroke-linecap="round" stroke-linejoin="round"/>
    <path d="M24.1269 192.276L15.9924 197.54C15.9924 197.54 12.2602 204.398 11.5903 208.449C10.9204 212.501 9.99529 218.243 12.643 219.04C15.2906 219.838 22.5 220.316 25.0201 217.605C27.5401 214.893 33.3778 211.001 34.0477 206.95C34.7176 202.899 32.995 192.212 32.995 192.212C32.995 192.212 26.6788 190.458 24.1269 192.276Z" fill="#FAB7A6" stroke="#FAB7A6" stroke-width="0.664577"/>
    <path d="M90.8293 47.0688C90.8293 47.0688 96.5713 49.9398 93.0623 54.7248" stroke="#FAB7A6" stroke-width="0.904229" stroke-linecap="round" stroke-linejoin="round"/>
</svg>
