<svg width="120" height="26" viewBox="0 0 147 26" fill="none" xmlns="http://www.w3.org/2000/svg">
<g filter="url(#filter0_d)">
<path d="M117.109 17.6534C123.505 18.9751 129.836 20.5922 136.075 22.5046C136.845 22.7399 137.692 22.6577 138.314 22.2834C138.937 21.9092 139.244 21.2961 139.113 20.6617C138.719 18.7651 138.288 16.8659 137.82 14.9658C139.604 13.7406 141.419 12.5337 143.266 11.348C143.883 10.9524 144.138 10.3226 143.927 9.68302C143.717 9.04463 143.069 8.49126 142.222 8.23223C135.371 6.13282 128.417 4.35585 121.393 2.90436C119.965 7.82126 118.537 12.737 117.109 17.6534Z" fill="#FF9ABA"/>
<path d="M127.364 4.20282C125.38 3.74448 123.389 3.31178 121.393 2.90495C119.965 7.75003 118.537 12.5946 117.109 17.4397C120.707 18.1723 124.285 18.9974 127.838 19.915C127.86 14.6972 127.702 9.4577 127.364 4.20282Z" fill="#FF8EB2"/>
<path d="M120.551 6.10176C120.832 5.03611 121.113 3.97097 121.393 2.90608C122.922 4.1337 124.423 5.37691 125.896 6.63574C124.112 6.43464 122.33 6.25579 120.551 6.10176Z" fill="#FF77A2"/>
<path d="M29.8906 17.6534C23.4952 18.9751 17.164 20.5922 10.9248 22.5046C10.155 22.7399 9.30877 22.6577 8.68556 22.2834C8.06263 21.9092 7.75612 21.2961 7.88721 20.6617C8.28102 18.7651 8.712 16.8659 9.18016 14.9658C7.39618 13.7406 5.58081 12.5337 3.73377 11.348C3.11744 10.9524 2.86188 10.3226 3.07256 9.68302C3.28323 9.04463 3.93232 8.49126 4.77777 8.23223C11.63 6.13282 18.5828 4.35585 25.6069 2.90436C27.0346 7.82126 28.4625 12.737 29.8906 17.6534Z" fill="#FF9ABA"/>
<path d="M19.6348 4.20282C21.6198 3.74448 23.6101 3.31178 25.6069 2.90495C27.0348 7.75003 28.4627 12.5946 29.8906 17.4397C26.2921 18.1723 22.7145 18.9974 19.1617 19.915C19.1399 14.6972 19.2975 9.4577 19.6348 4.20282Z" fill="#FF8EB2"/>
<path d="M26.4482 6.10176C26.1673 5.03611 25.8864 3.97097 25.6058 2.90608C24.0769 4.1337 22.5757 5.37691 21.1035 6.63574C22.8872 6.43464 24.6695 6.25579 26.4482 6.10176Z" fill="#FF77A2"/>
<path d="M25.7605 21.5689C26.8707 22.4073 27.8984 22.0539 29.0864 21.8637C44.0794 19.463 57.4022 17.5229 73.5004 18.215C89.5777 18.215 103.434 19.6132 119.025 22.702C120.199 22.9345 121.463 22.7996 122.459 22.3326C123.453 21.8658 124.088 20.3015 124.088 20.3015C125.682 15.6996 126.314 11.2791 125.896 5.89518C108.748 2.69488 91.1245 1.09454 73.5004 1.09454C55.8765 1.09454 38.2529 2.69488 21.1052 5.89518C20.6869 11.2791 22.5016 16.967 24.0951 19.4727L25.7605 21.5689Z" fill="#FFA3C0"/>
</g>
<defs>
<filter id="filter0_d" x="0.937008" y="0.0629866" width="145.126" height="25.8449" filterUnits="userSpaceOnUse" color-interpolation-filters="sRGB">
<feFlood flood-opacity="0" result="BackgroundImageFix"/>
<feColorMatrix in="SourceAlpha" type="matrix" values="0 0 0 0 0 0 0 0 0 0 0 0 0 0 0 0 0 0 127 0"/>
<feOffset dy="1.0315"/>
<feGaussianBlur stdDeviation="1.0315"/>
<feColorMatrix type="matrix" values="0 0 0 0 0 0 0 0 0 0 0 0 0 0 0 0 0 0 0.1 0"/>
<feBlend mode="normal" in2="BackgroundImageFix" result="effect1_dropShadow"/>
<feBlend mode="normal" in="SourceGraphic" in2="effect1_dropShadow" result="shape"/>
</filter>
</defs>
</svg>
